<?xml version="1.0" encoding="UTF-8"?>
<svg version="1.1" xmlns="http://www.w3.org/2000/svg" width="500" height="499">
<path d="M0 0 C1.37282135 -0.0049926 1.37282135 -0.0049926 2.77337646 -0.01008606 C4.69624329 -0.0151242 6.61911877 -0.01749535 8.54199219 -0.01733398 C11.48907616 -0.01953476 14.43579392 -0.03776205 17.3828125 -0.05664062 C19.25520706 -0.05957231 21.12760338 -0.06155861 23 -0.0625 C24.32188324 -0.07327827 24.32188324 -0.07327827 25.67047119 -0.08427429 C26.48852234 -0.08119766 27.30657349 -0.07812103 28.14941406 -0.07495117 C28.86776428 -0.07637619 29.5861145 -0.07780121 30.32623291 -0.07926941 C32.234375 0.16796875 32.234375 0.16796875 35.234375 2.16796875 C33.5560777 9.18927375 31.68254071 16.10331046 29.53222656 22.99414062 C24.19602996 40.18208805 20.36596853 57.63074481 16.64575195 75.22387695 C16.04887829 78.04459208 15.44577214 80.86397365 14.84375 83.68359375 C13.9597861 87.84220855 13.08980128 92.00339343 12.234375 96.16796875 C16.87685963 93.65448511 20.71088976 91.07278724 24.671875 87.54296875 C59.51399173 57.60646114 105.40064477 47.49229181 150.109375 47.85546875 C152.56803373 47.86615839 155.02669258 47.87681894 157.48535156 47.88745117 C173.56478489 47.98766758 189.53372729 48.43430348 205.55664062 49.84716797 C208.89347965 50.13823319 212.23088602 50.40357947 215.5705719 50.65885925 C266.26623236 54.54049125 316.80394436 62.49360834 365.859375 76.04296875 C366.89698975 76.32914062 367.93460449 76.6153125 369.00366211 76.91015625 C375.97702334 78.91061709 375.97702334 78.91061709 378.234375 81.16796875 C378.47488403 83.30667114 378.47488403 83.30667114 378.46142578 85.98486328 C378.46127472 86.98574982 378.46112366 87.98663635 378.46096802 89.01785278 C378.45064545 90.10121918 378.44032288 91.18458557 378.4296875 92.30078125 C378.42544266 93.96123978 378.42544266 93.96123978 378.42111206 95.65524292 C378.40989019 99.20126012 378.38478191 102.7470275 378.359375 106.29296875 C378.3493478 108.69270469 378.3402215 111.09244458 378.33203125 113.4921875 C378.30994432 119.38420026 378.27644707 125.27606666 378.234375 131.16796875 C373.85168375 132.62886583 370.55821834 130.75625434 366.359375 129.29296875 C339.33412962 120.33200259 311.27154241 114.85157434 283.234375 110.16796875 C284.78181293 113.47082879 286.71069167 116.04492769 289.06713867 118.83496094 C307.07795554 140.24151675 328.68898027 176.0758633 327.234375 205.16796875 C328.884375 205.49796875 330.534375 205.82796875 332.234375 206.16796875 C332.234375 206.82796875 332.234375 207.48796875 332.234375 208.16796875 C331.574375 208.49796875 330.914375 208.82796875 330.234375 209.16796875 C330.3065625 210.15925781 330.37875 211.15054688 330.453125 212.171875 C333.28926606 255.94315322 330.16026234 299.67475682 325.234375 343.16796875 C325.1445636 343.96438782 325.0547522 344.76080688 324.96221924 345.58135986 C319.99590086 389.30716366 311.71040381 432.93753477 299.234375 475.16796875 C291.9896488 475.33578454 284.7447804 475.49574988 277.49975586 475.65014648 C275.03291865 475.7036567 272.56612036 475.75899268 270.09936523 475.81616211 C266.56242267 475.8978221 263.02539402 475.97300628 259.48828125 476.046875 C258.37787979 476.07391006 257.26747833 476.10094513 256.12342834 476.12879944 C255.10244553 476.14889572 254.08146271 476.168992 253.02954102 476.18969727 C251.67385765 476.21967552 251.67385765 476.21967552 250.29078674 476.2502594 C248.234375 476.16796875 248.234375 476.16796875 247.234375 475.16796875 C247.70100667 468.62759903 249.43170624 462.72261732 251.359375 456.48046875 C257.20267392 436.93459596 261.78350188 417.12277944 265.671875 397.10546875 C265.80361115 396.43031219 265.93534729 395.75515564 266.07107544 395.05953979 C267.67012087 387.16892763 267.67012087 387.16892763 268.234375 379.16796875 C267.41195313 379.88082031 266.58953125 380.59367187 265.7421875 381.328125 C207.40465012 431.55150521 138.15306787 431.16327921 65.11523438 425.72900391 C59.33810094 425.27585737 53.56685843 424.76647006 47.796875 424.23046875 C46.49564194 424.11149231 46.49564194 424.11149231 45.16812134 423.9901123 C34.84012154 423.03010352 24.65272969 421.67415396 14.43579102 419.88818359 C10.59459748 419.2184505 6.74489463 418.64740556 2.8828125 418.109375 C-74.54475847 407.27840202 -74.54475847 407.27840202 -96.765625 396.16796875 C-96.765625 379.00796875 -96.765625 361.84796875 -96.765625 344.16796875 C-93.80092909 342.68562079 -92.18333166 343.80960923 -89.0703125 344.828125 C-87.89098145 345.20694824 -86.71165039 345.58577148 -85.49658203 345.97607422 C-84.86802307 346.18085388 -84.23946411 346.38563354 -83.59185791 346.59661865 C-66.33021941 352.20399192 -48.89831623 356.92836352 -31.0546875 360.3125 C-20.57640145 362.34595734 -10.17914008 364.82926824 0.234375 367.16796875 C-3.03019482 362.74544445 -6.34249491 358.44135226 -9.953125 354.29296875 C-46.39659441 309.93500851 -51.04237346 255.3973114 -48.953125 200.41796875 C-48.90960907 199.26790344 -48.86609314 198.11783813 -48.82125854 196.93292236 C-48.1196801 178.78700136 -47.03824268 160.74709015 -45.13476562 142.6875 C-44.79666233 139.46389081 -44.48834572 136.23897284 -44.1875 133.01171875 C-41.05225313 101.26149489 -35.57876515 69.09878625 -27.765625 38.16796875 C-27.50335114 37.12811829 -27.50335114 37.12811829 -27.23577881 36.06726074 C-25.85231689 30.594716 -24.4419733 25.12948189 -23.015625 19.66796875 C-22.81881134 18.9110675 -22.62199768 18.15416626 -22.41921997 17.37432861 C-21.859102 15.23078161 -21.29054542 13.08967666 -20.71875 10.94921875 C-20.39036133 9.71236328 -20.06197266 8.47550781 -19.72363281 7.20117188 C-18.765625 4.16796875 -18.765625 4.16796875 -16.765625 1.16796875 C-11.23975279 -0.07298069 -5.6374783 0.00718486 0 0 Z M35.75292969 143.81298828 C24.36891975 157.09433321 15.57201357 171.89610249 9.234375 188.16796875 C8.77289063 189.31007813 8.31140625 190.4521875 7.8359375 191.62890625 C-5.04962716 226.38088367 -1.569173 264.91426876 13.35107422 298.36083984 C19.02235081 310.42108285 26.53990104 321.11605716 35.234375 331.16796875 C36.21550065 332.39557231 37.19504979 333.62444049 38.171875 334.85546875 C39.1928125 336.00015625 39.1928125 336.00015625 40.234375 337.16796875 C40.894375 337.16796875 41.554375 337.16796875 42.234375 337.16796875 C42.234375 337.82796875 42.234375 338.48796875 42.234375 339.16796875 C45.72649524 342.37288658 49.51950745 345.22622154 53.234375 348.16796875 C53.95109375 348.77253906 54.6678125 349.37710938 55.40625 350 C82.29578516 372.25161146 119.65309934 381.60696375 153.921875 378.48046875 C190.08943749 374.65801549 225.05568188 357.66953502 248.234375 329.16796875 C249.00652344 328.23339844 249.77867187 327.29882812 250.57421875 326.3359375 C262.77921236 311.24197697 271.07815872 294.1420035 276.484375 275.54296875 C276.73082764 274.69645752 276.97728027 273.84994629 277.23120117 272.9777832 C284.02110106 248.59469647 282.64075052 223.46972751 276.234375 199.16796875 C276.03682617 198.41854004 275.83927734 197.66911133 275.63574219 196.89697266 C266.13436601 162.39499784 240.82776836 132.80671437 210.1015625 115.26171875 C152.78562518 83.66706779 79.90778126 94.78276582 35.75292969 143.81298828 Z " fill="#F7F7F7" transform="translate(112.765625,7.83203125)"/>
<path d="M0 0 C19.67084919 16.40768089 33.62316787 38.59114428 36.72802734 64.33325195 C38.9106882 90.31223971 33.61045789 115.77891163 16.51318359 136.16918945 C13.78787411 139.26053443 10.94014001 142.20964844 8.04833984 145.14575195 C7.26716797 145.95141602 6.48599609 146.75708008 5.68115234 147.5871582 C-11.11875283 163.84969268 -35.46637541 171.93971536 -58.51416016 172.52075195 C-86.82267292 171.8317617 -111.4740424 159.68823052 -130.87353516 139.52075195 C-148.88045529 120.17592424 -154.99255648 94.58065083 -154.27197266 68.84106445 C-153.7294765 57.10519436 -151.53269094 46.59432947 -145.95166016 36.14575195 C-145.49791016 35.24469727 -145.04416016 34.34364258 -144.57666016 33.4152832 C-140.99084086 26.50673461 -136.7060657 20.29851207 -131.95166016 14.14575195 C-131.47083984 13.50895508 -130.99001953 12.8721582 -130.49462891 12.21606445 C-115.97984863 -5.93786823 -92.63969266 -16.23189804 -70.12353516 -19.5378418 C-44.99949008 -22.04405812 -19.8284391 -15.99170264 0 0 Z M-93.21728516 44.7512207 C-101.77576745 56.56732351 -105.16901519 68.70751317 -103.95166016 83.14575195 C-101.8660758 94.57877462 -96.391946 105.23400695 -87.24072266 112.58325195 C-74.44179227 121.31972321 -62.18316558 123.40473204 -46.95166016 121.14575195 C-39.38749962 119.24697223 -33.75622325 115.22338846 -27.95166016 110.14575195 C-27.33419922 109.6455957 -26.71673828 109.14543945 -26.08056641 108.63012695 C-18.25890975 101.73173934 -13.40781291 90.90578624 -12.71337891 80.61450195 C-12.42275158 65.07358833 -16.01462206 53.62116584 -26.89697266 42.08325195 C-37.34091473 32.27355737 -49.27439121 29.61007633 -63.23681641 29.83325195 C-74.18374202 30.75412898 -85.65237688 36.77204364 -93.21728516 44.7512207 Z " fill="#F4F4F4" transform="translate(311.95166015625,169.854248046875)"/>
<path d="M0 0 C1.22642212 0.00276947 2.45284424 0.00553894 3.71643066 0.00839233 C21.14892922 0.05460259 38.45014045 0.39736426 55.82226562 1.92919922 C59.15910465 2.22026444 62.49651102 2.48561072 65.8361969 2.7408905 C116.53185736 6.6225225 167.06956936 14.57563959 216.125 28.125 C217.16261475 28.41117188 218.20022949 28.69734375 219.26928711 28.9921875 C226.24264834 30.99264834 226.24264834 30.99264834 228.5 33.25 C228.74050903 35.38870239 228.74050903 35.38870239 228.72705078 38.06689453 C228.72689972 39.06778107 228.72674866 40.0686676 228.72659302 41.09988403 C228.71627045 42.18325043 228.70594788 43.26661682 228.6953125 44.3828125 C228.69106766 46.04327103 228.69106766 46.04327103 228.68673706 47.73727417 C228.67551519 51.28329137 228.65040691 54.82905875 228.625 58.375 C228.6149728 60.77473594 228.6058465 63.17447583 228.59765625 65.57421875 C228.57556932 71.46623151 228.54207207 77.35809791 228.5 83.25 C227.015 83.745 227.015 83.745 225.5 84.25 C224.51 83.59 223.52 82.93 222.5 82.25 C223.82 82.25 225.14 82.25 226.5 82.25 C226.5 66.08 226.5 49.91 226.5 33.25 C221.22 31.93 215.94 30.61 210.5 29.25 C204.26171875 27.57421875 204.26171875 27.57421875 201.27832031 26.765625 C154.33112598 14.18704023 105.89414482 7.82680915 57.5 4.25 C56.32585541 4.16072235 56.32585541 4.16072235 55.12799072 4.06964111 C35.85448996 2.60470964 16.64125682 2.07414126 -2.6875 2.0625 C-3.6553241 2.06141235 -4.62314819 2.06032471 -5.62030029 2.0592041 C-17.61562106 2.06073918 -29.53478352 2.39004027 -41.5 3.25 C-41.5 2.92 -41.5 2.59 -41.5 2.25 C-27.72476452 -0.26343656 -13.95746924 -0.06127864 0 0 Z " fill="#3F3F3F" transform="translate(262.5,55.75)"/>
<path d="M0 0 C0.76948975 0.24161865 1.53897949 0.4832373 2.33178711 0.73217773 C10.70041165 3.33651627 19.11032376 5.74518385 27.5625 8.0625 C28.78646484 8.40087891 30.01042969 8.73925781 31.27148438 9.08789062 C45.82007691 13.10583515 45.82007691 13.10583515 60.5625 16.3125 C72.42725514 18.62575415 84.20655192 21.35138973 96 24 C95.01 21.525 95.01 21.525 94 19 C95.68762851 20.6454378 97.3540349 22.31288577 99 24 C99 24.33 99 24.66 99 25 C91.78178343 25.13959758 85.06512075 23.96075804 78 22.625 C77.31603149 22.49706055 76.63206299 22.36912109 75.92736816 22.23730469 C63.7546146 19.93879129 51.74491557 17.08696129 39.75 14 C38.95867676 13.79707336 38.16735352 13.59414673 37.35205078 13.3850708 C25.1282655 10.23412261 13.101065 6.6303195 1 3 C1 19.17 1 35.34 1 52 C3.64 52.66 6.28 53.32 9 54 C9 54.33 9 54.66 9 55 C1.25 54.125 1.25 54.125 -1 53 C-1.02526692 45.61271898 -1.0428316 38.22544902 -1.05493164 30.83813477 C-1.05997363 28.32283105 -1.06680703 25.80753028 -1.07543945 23.29223633 C-1.08751094 19.68570225 -1.09322949 16.07920677 -1.09765625 12.47265625 C-1.10281754 11.34038101 -1.10797882 10.20810577 -1.11329651 9.04151917 C-1.11337204 8.00051559 -1.11344757 6.95951202 -1.11352539 5.88696289 C-1.115746 4.96540909 -1.11796661 4.04385529 -1.12025452 3.09437561 C-1 1 -1 1 0 0 Z " fill="#3C3C3C" transform="translate(17,351)"/>
<path d="M0 0 C1.37282135 -0.0049926 1.37282135 -0.0049926 2.77337646 -0.01008606 C4.69624329 -0.0151242 6.61911877 -0.01749535 8.54199219 -0.01733398 C11.48907616 -0.01953476 14.43579392 -0.03776205 17.3828125 -0.05664062 C19.25520706 -0.05957231 21.12760338 -0.06155861 23 -0.0625 C24.32188324 -0.07327827 24.32188324 -0.07327827 25.67047119 -0.08427429 C26.48852234 -0.08119766 27.30657349 -0.07812103 28.14941406 -0.07495117 C28.86776428 -0.07637619 29.5861145 -0.07780121 30.32623291 -0.07926941 C32.234375 0.16796875 32.234375 0.16796875 35.234375 2.16796875 C33.5560777 9.18927375 31.68254071 16.10331046 29.53222656 22.99414062 C24.19602996 40.18208805 20.36596853 57.63074481 16.64575195 75.22387695 C16.04887829 78.04459208 15.44577214 80.86397365 14.84375 83.68359375 C13.9597861 87.84220855 13.08980128 92.00339343 12.234375 96.16796875 C13.018125 95.65234375 13.801875 95.13671875 14.609375 94.60546875 C15.475625 94.13109375 16.341875 93.65671875 17.234375 93.16796875 C18.224375 93.66296875 18.224375 93.66296875 19.234375 94.16796875 C17.70442708 95.40494792 16.17447917 96.64192708 14.64453125 97.87890625 C13.10171063 99.13460785 13.10171063 99.13460785 12.234375 101.16796875 C11.574375 101.16796875 10.914375 101.16796875 10.234375 101.16796875 C10.81020019 92.53281413 12.19816189 84.15547101 13.859375 75.66796875 C14.05528732 74.6615181 14.05528732 74.6615181 14.25515747 73.63473511 C18.98447033 49.47104135 25.4483464 25.52605455 33.234375 2.16796875 C16.734375 2.16796875 0.234375 2.16796875 -16.765625 2.16796875 C-16.765625 1.83796875 -16.765625 1.50796875 -16.765625 1.16796875 C-11.14275591 0.21546347 -5.69718117 0.00726095 0 0 Z " fill="#454545" transform="translate(112.765625,7.83203125)"/>
<path d="M0 0 C1.79275866 3.11910856 2.34290718 5.67682428 2.625 9.25 C2.69976562 10.14203125 2.77453125 11.0340625 2.8515625 11.953125 C2.92503906 12.96632812 2.92503906 12.96632812 3 14 C4.65 14.33 6.3 14.66 8 15 C8 15.66 8 16.32 8 17 C7.34 17.33 6.68 17.66 6 18 C6.0721875 18.99128906 6.144375 19.98257813 6.21875 21.00390625 C8.65732045 58.63932128 6.84146382 96.5252944 3 134 C2.67 134 2.34 134 2 134 C1.87976773 124.27012757 2.21040148 114.7162495 2.98046875 105.01171875 C4.0260393 90.5771104 4.34020947 76.19362739 4.31567383 61.71850586 C4.31246949 57.77495712 4.33627871 53.83213132 4.36132812 49.88867188 C5.23904482 27.96721214 5.23904482 27.96721214 0 7 C-0.04022391 4.6670134 -0.04320247 2.33293334 0 0 Z " fill="#3A3A3A" transform="translate(437,199)"/>
<path d="M0 0 C1.67542976 0.28604898 3.34385343 0.61781233 5 1 C5 1.66 5 2.32 5 3 C3.68 3 2.36 3 1 3 C1 19.17 1 35.34 1 52 C3.64 52.66 6.28 53.32 9 54 C9 54.33 9 54.66 9 55 C1.25 54.125 1.25 54.125 -1 53 C-1.02526692 45.61271898 -1.0428316 38.22544902 -1.05493164 30.83813477 C-1.05997363 28.32283105 -1.06680703 25.80753028 -1.07543945 23.29223633 C-1.08751094 19.68570225 -1.09322949 16.07920677 -1.09765625 12.47265625 C-1.10281754 11.34038101 -1.10797882 10.20810577 -1.11329651 9.04151917 C-1.11337204 8.00051559 -1.11344757 6.95951202 -1.11352539 5.88696289 C-1.115746 4.96540909 -1.11796661 4.04385529 -1.12025452 3.09437561 C-1 1 -1 1 0 0 Z " fill="#4E4E4E" transform="translate(17,351)"/>
<path d="M0 0 C1 2 1 2 0.109375 4.90625 C-0.33921875 6.0921875 -0.7878125 7.278125 -1.25 8.5 C-10.43676023 33.29533342 -10.58358852 57.60835218 -0.125 82.1875 C0.30554688 83.08855469 0.73609375 83.98960937 1.1796875 84.91796875 C1.45039063 85.60503906 1.72109375 86.29210937 2 87 C1.505 87.99 1.505 87.99 1 89 C-6.8671072 74.71668651 -10.4037571 59.55758708 -10.3125 43.3125 C-10.30758545 42.26811768 -10.3026709 41.22373535 -10.29760742 40.14770508 C-10.10218569 27.13061367 -8.16637155 15.64080701 -2 4 C-1.33152113 2.66757431 -0.66421682 1.33455545 0 0 Z " fill="#333333" transform="translate(168,202)"/>
<path d="M0 0 C1.32 0.33 2.64 0.66 4 1 C4 17.5 4 34 4 51 C2.515 51.495 2.515 51.495 1 52 C0.01 51.34 -0.98 50.68 -2 50 C-0.68 50 0.64 50 2 50 C2 33.83 2 17.66 2 1 C1.34 0.67 0.68 0.34 0 0 Z " fill="#636363" transform="translate(487,88)"/>
<path d="M0 0 C0.33 0 0.66 0 1 0 C1.15533365 5.12434925 0.61756102 9.81516176 -0.4609375 14.8046875 C-0.61156647 15.52810333 -0.76219543 16.25151917 -0.91738892 16.99685669 C-1.39674249 19.29099644 -1.88574646 21.58295353 -2.375 23.875 C-2.69594048 25.40481631 -3.01625825 26.93476339 -3.3359375 28.46484375 C-4.84244734 35.65391572 -6.38412033 42.83463458 -8 50 C-6.824375 49.2265625 -6.824375 49.2265625 -5.625 48.4375 C-4.75875 47.963125 -3.8925 47.48875 -3 47 C-2.34 47.33 -1.68 47.66 -1 48 C-2.52994792 49.23697917 -4.05989583 50.47395833 -5.58984375 51.7109375 C-7.13266437 52.9666391 -7.13266437 52.9666391 -8 55 C-8.66 55 -9.32 55 -10 55 C-9.47971961 46.75107323 -8.13754164 38.73535111 -6.52587891 30.63964844 C-6.1271664 28.6358874 -5.73671797 26.63065487 -5.34765625 24.625 C-3.73542256 16.37549714 -1.94721414 8.17690727 0 0 Z " fill="#3C3C3C" transform="translate(133,54)"/>
<path d="M0 0 C0.33 0 0.66 0 1 0 C1.25 6.625 1.25 6.625 -1 10 C15.5 10 32 10 49 10 C49.33 8.02 49.66 6.04 50 4 C50.33 4 50.66 4 51 4 C50.67 6.31 50.34 8.62 50 11 C42.7552738 11.16781579 35.5104054 11.32778113 28.26538086 11.48217773 C25.79854365 11.53568795 23.33174536 11.59102393 20.86499023 11.64819336 C17.32804767 11.72985335 13.79101902 11.80503753 10.25390625 11.87890625 C9.14350479 11.90594131 8.03310333 11.93297638 6.88905334 11.96083069 C5.35757912 11.99097511 5.35757912 11.99097511 3.79516602 12.02172852 C2.43948265 12.05170677 2.43948265 12.05170677 1.05641174 12.08229065 C-1 12 -1 12 -2 11 C-1.62206515 7.09467317 -1.23947487 3.7184246 0 0 Z " fill="#3F3F3F" transform="translate(362,472)"/>
<path d="M0 0 C0.96245445 3.84981779 0.97178803 5.26141707 0.22265625 8.984375 C-0.05288086 10.38623047 -0.05288086 10.38623047 -0.33398438 11.81640625 C-0.53314453 12.78449219 -0.73230469 13.75257813 -0.9375 14.75 C-1.13279297 15.73355469 -1.32808594 16.71710938 -1.52929688 17.73046875 C-2.01190558 20.15528321 -2.50238859 22.57822773 -3 25 C-3.33 25 -3.66 25 -4 25 C-3.44210432 17.98475852 -2.81552077 10.99017804 -2 4 C-2.99 4.99 -3.98 5.98 -5 7 C-5.66 6.67 -6.32 6.34 -7 6 C-4.69 4.02 -2.38 2.04 0 0 Z " fill="#363636" transform="translate(383,383)"/>
<path d="M0 0 C8.02715768 1.19960703 16.0237581 2.49746145 24 4 C24 4.33 24 4.66 24 5 C18.53294484 5.24298023 13.69539485 4.43538478 8.35546875 3.2421875 C7.18951172 3.12230469 7.18951172 3.12230469 6 3 C5.34 3.66 4.68 4.32 4 5 C2.68 3.35 1.36 1.7 0 0 Z " fill="#262626" transform="translate(390,115)"/>
<path d="M0 0 C1 2 1 2 0.109375 4.90625 C-0.33921875 6.0921875 -0.7878125 7.278125 -1.25 8.5 C-3.39782308 14.27484259 -5.31991974 20.07191194 -7 26 C-7.33 26 -7.66 26 -8 26 C-7.821987 17.63338881 -5.8450265 11.39059611 -2 4 C-1.33243441 2.66711651 -0.66542837 1.33395176 0 0 Z " fill="#3C3C3C" transform="translate(168,202)"/>
<path d="M0 0 C1.79275866 3.11910856 2.34290718 5.67682428 2.625 9.25 C2.69976562 10.14203125 2.77453125 11.0340625 2.8515625 11.953125 C2.92503906 12.96632812 2.92503906 12.96632812 3 14 C4.65 14.33 6.3 14.66 8 15 C8 15.66 8 16.32 8 17 C6.35 17 4.7 17 3 17 C1.03181664 11.17745757 -0.40214229 6.16618181 0 0 Z " fill="#757575" transform="translate(437,199)"/>
<path d="M0 0 C1.65 0 3.3 0 5 0 C4.67 0.99 4.34 1.98 4 3 C1.4375 4.1875 1.4375 4.1875 -1 5 C-0.67 3.35 -0.34 1.7 0 0 Z " fill="#4E4E4E" transform="translate(449,266)"/>
<path d="M0 0 C0.33 0 0.66 0 1 0 C1.33 3.96 1.66 7.92 2 12 C1.01 12.33 0.02 12.66 -1 13 C-1.99 12.34 -2.98 11.68 -4 11 C-2.68 11 -1.36 11 0 11 C0 7.37 0 3.74 0 0 Z " fill="#838383" transform="translate(489,127)"/>
<path d="M0 0 C3.3 0.33 6.6 0.66 10 1 C10 1.33 10 1.66 10 2 C8.35 2 6.7 2 5 2 C4.67 2.99 4.34 3.98 4 5 C2.68 3.35 1.36 1.7 0 0 Z " fill="#454545" transform="translate(390,115)"/>
<path d="M0 0 C0.66 0.33 1.32 0.66 2 1 C0.68 2.65 -0.64 4.3 -2 6 C-3.32 5.67 -4.64 5.34 -6 5 C-4.02 3.35 -2.04 1.7 0 0 Z " fill="#727272" transform="translate(341,355)"/>
<path d="M0 0 C0.66 0.33 1.32 0.66 2 1 C-0.97 3.475 -0.97 3.475 -4 6 C-3.6875 4.125 -3.6875 4.125 -3 2 C-2.01 1.34 -1.02 0.68 0 0 Z " fill="#CECECE" transform="translate(187,178)"/>
<path d="" fill="#000000" transform="translate(0,0)"/>
<path d="" fill="#000000" transform="translate(0,0)"/>
<path d="" fill="#000000" transform="translate(0,0)"/>
<path d="" fill="#000000" transform="translate(0,0)"/>
<path d="" fill="#000000" transform="translate(0,0)"/>
<path d="" fill="#000000" transform="translate(0,0)"/>
<path d="" fill="#000000" transform="translate(0,0)"/>
<path d="" fill="#000000" transform="translate(0,0)"/>
<path d="" fill="#000000" transform="translate(0,0)"/>
<path d="" fill="#000000" transform="translate(0,0)"/>
<path d="" fill="#000000" transform="translate(0,0)"/>
<path d="" fill="#000000" transform="translate(0,0)"/>
<path d="" fill="#000000" transform="translate(0,0)"/>
<path d="" fill="#000000" transform="translate(0,0)"/>
<path d="" fill="#000000" transform="translate(0,0)"/>
<path d="" fill="#000000" transform="translate(0,0)"/>
<path d="" fill="#000000" transform="translate(0,0)"/>
<path d="" fill="#000000" transform="translate(0,0)"/>
<path d="" fill="#000000" transform="translate(0,0)"/>
<path d="" fill="#000000" transform="translate(0,0)"/>
<path d="" fill="#000000" transform="translate(0,0)"/>
<path d="" fill="#000000" transform="translate(0,0)"/>
<path d="" fill="#000000" transform="translate(0,0)"/>
<path d="" fill="#000000" transform="translate(0,0)"/>
<path d="" fill="#000000" transform="translate(0,0)"/>
<path d="" fill="#000000" transform="translate(0,0)"/>
<path d="" fill="#000000" transform="translate(0,0)"/>
<path d="" fill="#000000" transform="translate(0,0)"/>
<path d="" fill="#000000" transform="translate(0,0)"/>
<path d="" fill="#000000" transform="translate(0,0)"/>
<path d="" fill="#000000" transform="translate(0,0)"/>
<path d="" fill="#000000" transform="translate(0,0)"/>
<path d="" fill="#000000" transform="translate(0,0)"/>
<path d="" fill="#000000" transform="translate(0,0)"/>
<path d="" fill="#000000" transform="translate(0,0)"/>
<path d="" fill="#000000" transform="translate(0,0)"/>
<path d="" fill="#000000" transform="translate(0,0)"/>
<path d="" fill="#000000" transform="translate(0,0)"/>
<path d="" fill="#000000" transform="translate(0,0)"/>
<path d="" fill="#000000" transform="translate(0,0)"/>
<path d="" fill="#000000" transform="translate(0,0)"/>
<path d="" fill="#000001" transform="translate(0,0)"/>
<path d="" fill="#000000" transform="translate(0,0)"/>
</svg>
