<?xml version="1.0" standalone="no"?><svg xmlns:xlink="http://www.w3.org/1999/xlink" xmlns="http://www.w3.org/2000/svg" viewBox="0 0 1000 583.3360007682213" preserveAspectRatio="xMaxYMax slice"><g transform="scale(1.2803687461989053)"><rect x="0" y="0" width="781.0285714285715" height="455.6" fill="#1f1f1f"/><path d="M 260.34 65.09 A 65.09 65.09 0 0 1  325.42999999999995 130.18 L 260.34 65.09 A 65.09 65.09 0 0 0 325.42999999999995 130.18" fill="#818181"/><rect x="520.6857142857143" y="65.08571428571429" width="65.08571428571429" height="65.08571428571429" fill="#1f1f1f"/><path d="M 520.69 97.63 A 32.54 32.54 0 0 1  553.23 65.09 L 520.69 97.63 A 32.54 32.54 0 0 0 553.23 65.09" fill="#222222"/><path d="M 553.23 65.09 A 32.54 32.54 0 0 1  585.77 97.63 L 553.23 65.09 A 32.54 32.54 0 0 0 585.77 97.63" fill="#555555"/><rect x="715.9428571428572" y="65.08571428571429" width="65.08571428571429" height="65.08571428571429" fill="#1f1f1f"/><path d="M 748.49 97.63 A 32.54 32.54 0 0 1  781.03 65.09 L 748.49 97.63 A 32.54 32.54 0 0 0 781.03 65.09" fill="#343434"/><path d="M 0 195.26 A 65.09 65.09 0 0 1  65.09 130.17 L 0 195.26 A 65.09 65.09 0 0 0 65.09 130.17" fill="#2a2a2a"/><path d="M 65.09 195.26 A 65.09 65.09 0 0 1  130.18 130.17 L 65.09 195.26 A 65.09 65.09 0 0 0 130.18 130.17" fill="#3c3c3c"/><rect x="715.9428571428572" y="130.17142857142858" width="65.08571428571429" height="65.08571428571429" fill="#1f1f1f"/><path d="M 748.49 195.25 A 32.54 32.54 0 0 1  781.03 162.71 L 748.49 195.25 A 32.54 32.54 0 0 0 781.03 162.71" fill="#a5a5a5"/><rect x="65.08571428571429" y="195.25714285714287" width="65.08571428571429" height="65.08571428571429" fill="#1f1f1f"/><path d="M 65.09 195.26 A 32.54 32.54 0 0 1  97.63 227.79999999999998 L 65.09 195.26 A 32.54 32.54 0 0 0 97.63 227.79999999999998" fill="#ababab"/><rect x="130.17142857142858" y="195.25714285714287" width="65.08571428571429" height="65.08571428571429" fill="#1f1f1f"/><path d="M 130.17 260.34000000000003 A 32.54 32.54 0 0 1  162.70999999999998 227.8 L 130.17 260.34000000000003 A 32.54 32.54 0 0 0 162.70999999999998 227.8" fill="#7d7d7d"/><path d="M 162.71 227.8 A 32.54 32.54 0 0 1  195.25 260.34000000000003 L 162.71 227.8 A 32.54 32.54 0 0 0 195.25 260.34000000000003" fill="#3c3c3c"/><path d="M 260.34 260.35 A 65.09 65.09 0 0 1  325.42999999999995 195.26 L 260.34 260.35 A 65.09 65.09 0 0 0 325.42999999999995 195.26" fill="#2c2c2c"/><path d="M 520.69 195.26 A 65.09 65.09 0 0 1  585.7800000000001 260.35 L 520.69 195.26 A 65.09 65.09 0 0 0 585.7800000000001 260.35" fill="#686868"/><rect x="585.7714285714286" y="195.25714285714287" width="65.08571428571429" height="65.08571428571429" fill="#1f1f1f"/><path d="M 618.31 227.79999999999998 A 32.54 32.54 0 0 1  650.8499999999999 195.26 L 618.31 227.79999999999998 A 32.54 32.54 0 0 0 650.8499999999999 195.26" fill="#212121"/><path d="M 618.31 227.8 A 32.54 32.54 0 0 1  650.8499999999999 260.34000000000003 L 618.31 227.8 A 32.54 32.54 0 0 0 650.8499999999999 260.34000000000003" fill="#3b3b3b"/><path d="M 650.86 260.35 A 65.09 65.09 0 0 1  715.95 195.26 L 650.86 260.35 A 65.09 65.09 0 0 0 715.95 195.26" fill="#4f4f4f"/><path d="M 715.94 260.35 A 65.09 65.09 0 0 1  781.0300000000001 195.26 L 715.94 260.35 A 65.09 65.09 0 0 0 781.0300000000001 195.26" fill="#bbbbbb"/><path d="M 0 325.42999999999995 A 65.09 65.09 0 0 1  65.09 260.34 L 0 325.42999999999995 A 65.09 65.09 0 0 0 65.09 260.34" fill="#4a4a4a"/><rect x="65.08571428571429" y="260.34285714285716" width="65.08571428571429" height="65.08571428571429" fill="#1f1f1f"/><path d="M 97.63 325.43 A 32.54 32.54 0 0 1  130.17 292.89 L 97.63 325.43 A 32.54 32.54 0 0 0 130.17 292.89" fill="#242424"/><rect x="130.17142857142858" y="260.34285714285716" width="65.08571428571429" height="65.08571428571429" fill="#1f1f1f"/><path d="M 130.17 292.88 A 32.54 32.54 0 0 1  162.70999999999998 260.34 L 130.17 292.88 A 32.54 32.54 0 0 0 162.70999999999998 260.34" fill="#454545"/><path d="M 162.71 292.88 A 32.54 32.54 0 0 1  195.25 260.34 L 162.71 292.88 A 32.54 32.54 0 0 0 195.25 260.34" fill="#636363"/><path d="M 130.17 325.43 A 32.54 32.54 0 0 1  162.70999999999998 292.89 L 130.17 325.43 A 32.54 32.54 0 0 0 162.70999999999998 292.89" fill="#3e3e3e"/><path d="M 162.71 292.89 A 32.54 32.54 0 0 1  195.25 325.43 L 162.71 292.89 A 32.54 32.54 0 0 0 195.25 325.43" fill="#adadad"/><path d="M 195.26 260.34 A 65.09 65.09 0 0 1  260.35 325.42999999999995 L 195.26 260.34 A 65.09 65.09 0 0 0 260.35 325.42999999999995" fill="#616161"/><rect x="260.34285714285716" y="260.34285714285716" width="65.08571428571429" height="65.08571428571429" fill="#1f1f1f"/><path d="M 260.34 292.88 A 32.54 32.54 0 0 1  292.88 260.34 L 260.34 292.88 A 32.54 32.54 0 0 0 292.88 260.34" fill="#323232"/><path d="M 292.89 292.88 A 32.54 32.54 0 0 1  325.43 260.34 L 292.89 292.88 A 32.54 32.54 0 0 0 325.43 260.34" fill="#262626"/><path d="M 260.34 292.89 A 32.54 32.54 0 0 1  292.88 325.43 L 260.34 292.89 A 32.54 32.54 0 0 0 292.88 325.43" fill="#303030"/><path d="M 325.43 325.42999999999995 A 65.09 65.09 0 0 1  390.52 260.34 L 325.43 325.42999999999995 A 65.09 65.09 0 0 0 390.52 260.34" fill="#2c2c2c"/><rect x="585.7714285714286" y="260.34285714285716" width="65.08571428571429" height="65.08571428571429" fill="#1f1f1f"/><path d="M 618.31 292.88 A 32.54 32.54 0 0 1  650.8499999999999 260.34 L 618.31 292.88 A 32.54 32.54 0 0 0 650.8499999999999 260.34" fill="#bcbcbc"/><path d="M 585.77 292.89 A 32.54 32.54 0 0 1  618.31 325.43 L 585.77 292.89 A 32.54 32.54 0 0 0 618.31 325.43" fill="#b6b6b6"/><path d="M 618.31 325.43 A 32.54 32.54 0 0 1  650.8499999999999 292.89 L 618.31 325.43 A 32.54 32.54 0 0 0 650.8499999999999 292.89" fill="#838383"/><path d="M 650.86 260.34 A 65.09 65.09 0 0 1  715.95 325.42999999999995 L 650.86 260.34 A 65.09 65.09 0 0 0 715.95 325.42999999999995" fill="#333333"/><path d="M 0 325.43 A 65.09 65.09 0 0 1  65.09 390.52 L 0 325.43 A 65.09 65.09 0 0 0 65.09 390.52" fill="#202020"/><rect x="65.08571428571429" y="325.42857142857144" width="65.08571428571429" height="65.08571428571429" fill="#1f1f1f"/><path d="M 65.09 325.43 A 32.54 32.54 0 0 1  97.63 357.97 L 65.09 325.43 A 32.54 32.54 0 0 0 97.63 357.97" fill="#2b2b2b"/><path d="M 97.63 357.97 A 32.54 32.54 0 0 1  130.17 325.43 L 97.63 357.97 A 32.54 32.54 0 0 0 130.17 325.43" fill="#838383"/><path d="M 65.09 357.97 A 32.54 32.54 0 0 1  97.63 390.51000000000005 L 65.09 357.97 A 32.54 32.54 0 0 0 97.63 390.51000000000005" fill="#464646"/><path d="M 97.63 390.51000000000005 A 32.54 32.54 0 0 1  130.17 357.97 L 97.63 390.51000000000005 A 32.54 32.54 0 0 0 130.17 357.97" fill="#313131"/><path d="M 130.17 325.43 A 65.09 65.09 0 0 1  195.26 390.52 L 130.17 325.43 A 65.09 65.09 0 0 0 195.26 390.52" fill="#777777"/><path d="M 195.26 325.43 A 65.09 65.09 0 0 1  260.35 390.52 L 195.26 325.43 A 65.09 65.09 0 0 0 260.35 390.52" fill="#a3a3a3"/><rect x="260.34285714285716" y="325.42857142857144" width="65.08571428571429" height="65.08571428571429" fill="#1f1f1f"/><path d="M 260.34 357.97 A 32.54 32.54 0 0 1  292.88 325.43 L 260.34 357.97 A 32.54 32.54 0 0 0 292.88 325.43" fill="#2d2d2d"/><path d="M 292.89 357.97 A 32.54 32.54 0 0 1  325.43 325.43 L 292.89 357.97 A 32.54 32.54 0 0 0 325.43 325.43" fill="#282828"/><path d="M 260.34 357.97 A 32.54 32.54 0 0 1  292.88 390.51000000000005 L 260.34 357.97 A 32.54 32.54 0 0 0 292.88 390.51000000000005" fill="#3c3c3c"/><path d="M 292.89 390.51000000000005 A 32.54 32.54 0 0 1  325.43 357.97 L 292.89 390.51000000000005 A 32.54 32.54 0 0 0 325.43 357.97" fill="#2f2f2f"/><rect x="390.51428571428573" y="325.42857142857144" width="65.08571428571429" height="65.08571428571429" fill="#1f1f1f"/><path d="M 423.06 325.43 A 32.54 32.54 0 0 1  455.6 357.97 L 423.06 325.43 A 32.54 32.54 0 0 0 455.6 357.97" fill="#262626"/><path d="M 390.51 390.51000000000005 A 32.54 32.54 0 0 1  423.05 357.97 L 390.51 390.51000000000005 A 32.54 32.54 0 0 0 423.05 357.97" fill="#353535"/><path d="M 423.06 390.51000000000005 A 32.54 32.54 0 0 1  455.6 357.97 L 423.06 390.51000000000005 A 32.54 32.54 0 0 0 455.6 357.97" fill="#2f2f2f"/><path d="M 455.6 390.52 A 65.09 65.09 0 0 1  520.69 325.43 L 455.6 390.52 A 65.09 65.09 0 0 0 520.69 325.43" fill="#222222"/><path d="M 520.69 325.43 A 65.09 65.09 0 0 1  585.7800000000001 390.52 L 520.69 325.43 A 65.09 65.09 0 0 0 585.7800000000001 390.52" fill="#717171"/><path d="M 585.77 390.52 A 65.09 65.09 0 0 1  650.86 325.43 L 585.77 390.52 A 65.09 65.09 0 0 0 650.86 325.43" fill="#505050"/><rect x="650.8571428571429" y="325.42857142857144" width="65.08571428571429" height="65.08571428571429" fill="#1f1f1f"/><path d="M 650.86 325.43 A 32.54 32.54 0 0 1  683.4 357.97 L 650.86 325.43 A 32.54 32.54 0 0 0 683.4 357.97" fill="#313131"/><path d="M 683.4 325.43 A 32.54 32.54 0 0 1  715.9399999999999 357.97 L 683.4 325.43 A 32.54 32.54 0 0 0 715.9399999999999 357.97" fill="#515151"/><path d="M 650.86 357.97 A 32.54 32.54 0 0 1  683.4 390.51000000000005 L 650.86 357.97 A 32.54 32.54 0 0 0 683.4 390.51000000000005" fill="#333333"/><path d="M 683.4 357.97 A 32.54 32.54 0 0 1  715.9399999999999 390.51000000000005 L 683.4 357.97 A 32.54 32.54 0 0 0 715.9399999999999 390.51000000000005" fill="#3a3a3a"/><path d="M 715.94 325.43 A 65.09 65.09 0 0 1  781.0300000000001 390.52 L 715.94 325.43 A 65.09 65.09 0 0 0 781.0300000000001 390.52" fill="#7a7a7a"/><rect x="0" y="390.51428571428573" width="65.08571428571429" height="65.08571428571429" fill="#1f1f1f"/><path d="M 0 423.05 A 32.54 32.54 0 0 1  32.54 390.51 L 0 423.05 A 32.54 32.54 0 0 0 32.54 390.51" fill="#343434"/><path d="M 32.54 423.05 A 32.54 32.54 0 0 1  65.08 390.51 L 32.54 423.05 A 32.54 32.54 0 0 0 65.08 390.51" fill="#4e4e4e"/><path d="M 0 423.06 A 32.54 32.54 0 0 1  32.54 455.6 L 0 423.06 A 32.54 32.54 0 0 0 32.54 455.6" fill="#212121"/><path d="M 32.54 423.06 A 32.54 32.54 0 0 1  65.08 455.6 L 32.54 423.06 A 32.54 32.54 0 0 0 65.08 455.6" fill="#212121"/><path d="M 65.09 455.6 A 65.09 65.09 0 0 1  130.18 390.51 L 65.09 455.6 A 65.09 65.09 0 0 0 130.18 390.51" fill="#232323"/><path d="M 130.17 390.51 A 65.09 65.09 0 0 1  195.26 455.6 L 130.17 390.51 A 65.09 65.09 0 0 0 195.26 455.6" fill="#acacac"/><rect x="195.25714285714287" y="390.51428571428573" width="65.08571428571429" height="65.08571428571429" fill="#1f1f1f"/><path d="M 195.26 423.05 A 32.54 32.54 0 0 1  227.79999999999998 390.51 L 195.26 423.05 A 32.54 32.54 0 0 0 227.79999999999998 390.51" fill="#333333"/><path d="M 227.8 423.05 A 32.54 32.54 0 0 1  260.34000000000003 390.51 L 227.8 423.05 A 32.54 32.54 0 0 0 260.34000000000003 390.51" fill="#6f6f6f"/><path d="M 195.26 455.6 A 32.54 32.54 0 0 1  227.79999999999998 423.06 L 195.26 455.6 A 32.54 32.54 0 0 0 227.79999999999998 423.06" fill="#202020"/><path d="M 227.8 423.06 A 32.54 32.54 0 0 1  260.34000000000003 455.6 L 227.8 423.06 A 32.54 32.54 0 0 0 260.34000000000003 455.6" fill="#262626"/><rect x="260.34285714285716" y="390.51428571428573" width="65.08571428571429" height="65.08571428571429" fill="#1f1f1f"/><path d="M 260.34 423.05 A 32.54 32.54 0 0 1  292.88 390.51 L 260.34 423.05 A 32.54 32.54 0 0 0 292.88 390.51" fill="#353535"/><path d="M 292.89 390.51 A 32.54 32.54 0 0 1  325.43 423.05 L 292.89 390.51 A 32.54 32.54 0 0 0 325.43 423.05" fill="#484848"/><path d="M 260.34 423.06 A 32.54 32.54 0 0 1  292.88 455.6 L 260.34 423.06 A 32.54 32.54 0 0 0 292.88 455.6" fill="#353535"/><path d="M 292.89 423.06 A 32.54 32.54 0 0 1  325.43 455.6 L 292.89 423.06 A 32.54 32.54 0 0 0 325.43 455.6" fill="#2f2f2f"/><path d="M 325.43 455.6 A 65.09 65.09 0 0 1  390.52 390.51 L 325.43 455.6 A 65.09 65.09 0 0 0 390.52 390.51" fill="#2c2c2c"/><rect x="390.51428571428573" y="390.51428571428573" width="65.08571428571429" height="65.08571428571429" fill="#1f1f1f"/><path d="M 390.51 390.51 A 32.54 32.54 0 0 1  423.05 423.05 L 390.51 390.51 A 32.54 32.54 0 0 0 423.05 423.05" fill="#656565"/><path d="M 423.06 390.51 A 32.54 32.54 0 0 1  455.6 423.05 L 423.06 390.51 A 32.54 32.54 0 0 0 455.6 423.05" fill="#232323"/><path d="M 390.51 455.6 A 32.54 32.54 0 0 1  423.05 423.06 L 390.51 455.6 A 32.54 32.54 0 0 0 423.05 423.06" fill="#262626"/><path d="M 423.06 423.06 A 32.54 32.54 0 0 1  455.6 455.6 L 423.06 423.06 A 32.54 32.54 0 0 0 455.6 455.6" fill="#7e7e7e"/><path d="M 455.6 390.51 A 65.09 65.09 0 0 1  520.69 455.6 L 455.6 390.51 A 65.09 65.09 0 0 0 520.69 455.6" fill="#a0a0a0"/><path d="M 520.69 390.51 A 65.09 65.09 0 0 1  585.7800000000001 455.6 L 520.69 390.51 A 65.09 65.09 0 0 0 585.7800000000001 455.6" fill="#585858"/><path d="M 585.77 390.51 A 65.09 65.09 0 0 1  650.86 455.6 L 585.77 390.51 A 65.09 65.09 0 0 0 650.86 455.6" fill="#2a2a2a"/><path d="M 650.86 455.6 A 65.09 65.09 0 0 1  715.95 390.51 L 650.86 455.6 A 65.09 65.09 0 0 0 715.95 390.51" fill="#343434"/><rect x="715.9428571428572" y="390.51428571428573" width="65.08571428571429" height="65.08571428571429" fill="#1f1f1f"/><path d="M 715.94 423.05 A 32.54 32.54 0 0 1  748.48 390.51 L 715.94 423.05 A 32.54 32.54 0 0 0 748.48 390.51" fill="#252525"/><path d="M 748.49 390.51 A 32.54 32.54 0 0 1  781.03 423.05 L 748.49 390.51 A 32.54 32.54 0 0 0 781.03 423.05" fill="#232323"/><path d="M 715.94 423.06 A 32.54 32.54 0 0 1  748.48 455.6 L 715.94 423.06 A 32.54 32.54 0 0 0 748.48 455.6" fill="#373737"/><path d="M 748.49 455.6 A 32.54 32.54 0 0 1  781.03 423.06 L 748.49 455.6 A 32.54 32.54 0 0 0 781.03 423.06" fill="#393939"/></g></svg>