<?xml version="1.0" standalone="no"?><svg xmlns:xlink="http://www.w3.org/1999/xlink" xmlns="http://www.w3.org/2000/svg" viewBox="0 0 1000 583.3360007682213" preserveAspectRatio="xMaxYMax slice"><g transform="scale(1.2803687461989053)"><rect x="0" y="0" width="781.0285714285715" height="455.6" fill="#333333"/><circle cx="32.54" cy="32.54" r="6.51" fill="#6d6d6d"/><circle cx="97.63000000000001" cy="32.54" r="6.51" fill="#5d5d5d"/><circle cx="162.72" cy="32.54" r="6.51" fill="#434343"/><circle cx="227.79999999999998" cy="32.54" r="6.51" fill="#636363"/><circle cx="292.89" cy="32.54" r="6.51" fill="#232323"/><circle cx="357.96999999999997" cy="32.54" r="6.51" fill="#6b6b6b"/><circle cx="423.06" cy="32.54" r="6.51" fill="#1f1f1f"/><circle cx="488.14" cy="32.54" r="6.51" fill="#3d3d3d"/><circle cx="553.23" cy="32.54" r="6.51" fill="#202020"/><circle cx="618.3199999999999" cy="32.54" r="6.51" fill="#636363"/><circle cx="683.4" cy="32.54" r="6.51" fill="#212121"/><circle cx="748.49" cy="32.54" r="6.51" fill="#2d2d2d"/><circle cx="32.54" cy="97.63000000000001" r="6.51" fill="#3d3d3d"/><circle cx="97.63000000000001" cy="97.63000000000001" r="6.51" fill="#323232"/><circle cx="162.72" cy="97.63000000000001" r="6.51" fill="#202020"/><circle cx="227.79999999999998" cy="97.63000000000001" r="6.51" fill="#272727"/><circle cx="292.89" cy="97.63000000000001" r="6.51" fill="#2e2e2e"/><circle cx="357.96999999999997" cy="97.63000000000001" r="6.51" fill="#212121"/><circle cx="423.06" cy="97.63000000000001" r="6.51" fill="#2a2a2a"/><circle cx="488.14" cy="97.63000000000001" r="6.51" fill="#282828"/><circle cx="553.23" cy="97.63000000000001" r="6.51" fill="#232323"/><circle cx="618.3199999999999" cy="97.63000000000001" r="6.51" fill="#272727"/><circle cx="683.4" cy="97.63000000000001" r="6.51" fill="#3b3b3b"/><circle cx="748.49" cy="97.63000000000001" r="6.51" fill="#575757"/><circle cx="32.54" cy="162.72" r="6.51" fill="#313131"/><circle cx="97.63000000000001" cy="162.72" r="6.51" fill="#292929"/><circle cx="162.72" cy="162.72" r="6.51" fill="#2a2a2a"/><circle cx="227.79999999999998" cy="162.72" r="6.51" fill="#525252"/><circle cx="292.89" cy="162.72" r="6.51" fill="#2f2f2f"/><circle cx="357.96999999999997" cy="162.72" r="6.51" fill="#3c3c3c"/><circle cx="423.06" cy="162.72" r="6.51" fill="#5d5d5d"/><circle cx="488.14" cy="162.72" r="6.51" fill="#4e4e4e"/><circle cx="553.23" cy="162.72" r="6.51" fill="#272727"/><circle cx="618.3199999999999" cy="162.72" r="6.51" fill="#494949"/><circle cx="683.4" cy="162.72" r="6.51" fill="#222222"/><circle cx="748.49" cy="162.72" r="6.51" fill="#262626"/><circle cx="32.54" cy="227.79999999999998" r="6.51" fill="#4f4f4f"/><circle cx="97.63000000000001" cy="227.79999999999998" r="6.51" fill="#2f2f2f"/><circle cx="162.72" cy="227.79999999999998" r="6.51" fill="#464646"/><circle cx="227.79999999999998" cy="227.79999999999998" r="6.51" fill="#232323"/><circle cx="292.89" cy="227.79999999999998" r="6.51" fill="#4c4c4c"/><circle cx="357.96999999999997" cy="227.79999999999998" r="6.51" fill="#656565"/><circle cx="423.06" cy="227.79999999999998" r="6.51" fill="#4e4e4e"/><circle cx="488.14" cy="227.79999999999998" r="6.51" fill="#5b5b5b"/><circle cx="553.23" cy="227.79999999999998" r="6.51" fill="#4e4e4e"/><circle cx="618.3199999999999" cy="227.79999999999998" r="6.51" fill="#636363"/><circle cx="683.4" cy="227.79999999999998" r="6.51" fill="#2b2b2b"/><circle cx="748.49" cy="227.79999999999998" r="6.51" fill="#4a4a4a"/><circle cx="32.54" cy="292.89" r="6.51" fill="#252525"/><circle cx="97.63000000000001" cy="292.89" r="6.51" fill="#5e5e5e"/><circle cx="162.72" cy="292.89" r="6.51" fill="#202020"/><circle cx="227.79999999999998" cy="292.89" r="6.51" fill="#333333"/><circle cx="292.89" cy="292.89" r="6.51" fill="#1f1f1f"/><circle cx="357.96999999999997" cy="292.89" r="6.51" fill="#5e5e5e"/><circle cx="423.06" cy="292.89" r="6.51" fill="#6b6b6b"/><circle cx="488.14" cy="292.89" r="6.51" fill="#292929"/><circle cx="553.23" cy="292.89" r="6.51" fill="#515151"/><circle cx="618.3199999999999" cy="292.89" r="6.51" fill="#6d6d6d"/><circle cx="683.4" cy="292.89" r="6.51" fill="#313131"/><circle cx="748.49" cy="292.89" r="6.51" fill="#2b2b2b"/><circle cx="32.54" cy="357.96999999999997" r="6.51" fill="#292929"/><circle cx="97.63000000000001" cy="357.96999999999997" r="6.51" fill="#6b6b6b"/><circle cx="162.72" cy="357.96999999999997" r="6.51" fill="#2b2b2b"/><circle cx="227.79999999999998" cy="357.96999999999997" r="6.51" fill="#2b2b2b"/><circle cx="292.89" cy="357.96999999999997" r="6.51" fill="#282828"/><circle cx="357.96999999999997" cy="357.96999999999997" r="6.51" fill="#292929"/><circle cx="423.06" cy="357.96999999999997" r="6.51" fill="#4a4a4a"/><circle cx="488.14" cy="357.96999999999997" r="6.51" fill="#696969"/><circle cx="553.23" cy="357.96999999999997" r="6.51" fill="#5e5e5e"/><circle cx="618.3199999999999" cy="357.96999999999997" r="6.51" fill="#212121"/><circle cx="683.4" cy="357.96999999999997" r="6.51" fill="#3f3f3f"/><circle cx="748.49" cy="357.96999999999997" r="6.51" fill="#313131"/><circle cx="32.54" cy="423.06" r="6.51" fill="#2e2e2e"/><circle cx="97.63000000000001" cy="423.06" r="6.51" fill="#2d2d2d"/><circle cx="162.72" cy="423.06" r="6.51" fill="#292929"/><circle cx="227.79999999999998" cy="423.06" r="6.51" fill="#5e5e5e"/><circle cx="292.89" cy="423.06" r="6.51" fill="#313131"/><circle cx="357.96999999999997" cy="423.06" r="6.51" fill="#303030"/><circle cx="423.06" cy="423.06" r="6.51" fill="#2a2a2a"/><circle cx="488.14" cy="423.06" r="6.51" fill="#292929"/><circle cx="553.23" cy="423.06" r="6.51" fill="#343434"/><circle cx="618.3199999999999" cy="423.06" r="6.51" fill="#5e5e5e"/><circle cx="683.4" cy="423.06" r="6.51" fill="#525252"/><circle cx="748.49" cy="423.06" r="6.51" fill="#2e2e2e"/></g></svg>