<?xml version="1.0" standalone="no"?><svg xmlns:xlink="http://www.w3.org/1999/xlink" xmlns="http://www.w3.org/2000/svg" viewBox="0 0 1000 583.3360007682213" preserveAspectRatio="xMaxYMax slice"><g transform="scale(1.2803687461989053)"><rect x="0" y="0" width="781.0285714285715" height="455.6" fill="#1f1f1f"/><rect x="65.08571428571429" y="0" width="65.08571428571429" height="65.08571428571429" fill="#1f1f1f"/><path d="M 97.63 32.54 A 32.54 32.54 0 0 1  130.17 65.08 L 97.63 32.54 A 32.54 32.54 0 0 0 130.17 65.08" fill="#323232"/><path d="M 455.6 65.09 A 65.09 65.09 0 0 1  520.69 0 L 455.6 65.09 A 65.09 65.09 0 0 0 520.69 0" fill="#252525"/><rect x="650.8571428571429" y="0" width="65.08571428571429" height="65.08571428571429" fill="#1f1f1f"/><path d="M 650.86 32.54 A 32.54 32.54 0 0 1  683.4 0 L 650.86 32.54 A 32.54 32.54 0 0 0 683.4 0" fill="#252525"/><rect x="0" y="65.08571428571429" width="65.08571428571429" height="65.08571428571429" fill="#1f1f1f"/><path d="M 0 97.63 A 32.54 32.54 0 0 1  32.54 65.09 L 0 97.63 A 32.54 32.54 0 0 0 32.54 65.09" fill="#2e2e2e"/><path d="M 32.54 97.63 A 32.54 32.54 0 0 1  65.08 65.09 L 32.54 97.63 A 32.54 32.54 0 0 0 65.08 65.09" fill="#222222"/><rect x="65.08571428571429" y="65.08571428571429" width="65.08571428571429" height="65.08571428571429" fill="#1f1f1f"/><path d="M 65.09 130.17 A 32.54 32.54 0 0 1  97.63 97.63 L 65.09 130.17 A 32.54 32.54 0 0 0 97.63 97.63" fill="#222222"/><path d="M 97.63 130.17 A 32.54 32.54 0 0 1  130.17 97.63 L 97.63 130.17 A 32.54 32.54 0 0 0 130.17 97.63" fill="#1f1f1f"/><rect x="325.42857142857144" y="65.08571428571429" width="65.08571428571429" height="65.08571428571429" fill="#1f1f1f"/><path d="M 325.43 130.17 A 32.54 32.54 0 0 1  357.97 97.63 L 325.43 130.17 A 32.54 32.54 0 0 0 357.97 97.63" fill="#212121"/><rect x="455.6" y="65.08571428571429" width="65.08571428571429" height="65.08571428571429" fill="#1f1f1f"/><rect x="520.6857142857143" y="65.08571428571429" width="65.08571428571429" height="65.08571428571429" fill="#1f1f1f"/><path d="M 520.69 130.17 A 32.54 32.54 0 0 1  553.23 97.63 L 520.69 130.17 A 32.54 32.54 0 0 0 553.23 97.63" fill="#262626"/><path d="M 650.86 65.09 A 65.09 65.09 0 0 1  715.95 130.18 L 650.86 65.09 A 65.09 65.09 0 0 0 715.95 130.18" fill="#222222"/><path d="M 130.17 195.26 A 65.09 65.09 0 0 1  195.26 130.17 L 130.17 195.26 A 65.09 65.09 0 0 0 195.26 130.17" fill="#292929"/><rect x="260.34285714285716" y="130.17142857142858" width="65.08571428571429" height="65.08571428571429" fill="#1f1f1f"/><rect x="455.6" y="130.17142857142858" width="65.08571428571429" height="65.08571428571429" fill="#1f1f1f"/><path d="M 455.6 162.70999999999998 A 32.54 32.54 0 0 1  488.14000000000004 130.17 L 455.6 162.70999999999998 A 32.54 32.54 0 0 0 488.14000000000004 130.17" fill="#242424"/><rect x="650.8571428571429" y="130.17142857142858" width="65.08571428571429" height="65.08571428571429" fill="#1f1f1f"/><path d="M 683.4 162.71 A 32.54 32.54 0 0 1  715.9399999999999 195.25 L 683.4 162.71 A 32.54 32.54 0 0 0 715.9399999999999 195.25" fill="#262626"/><path d="M 0 260.35 A 65.09 65.09 0 0 1  65.09 195.26 L 0 260.35 A 65.09 65.09 0 0 0 65.09 195.26" fill="#303030"/><rect x="65.08571428571429" y="195.25714285714287" width="65.08571428571429" height="65.08571428571429" fill="#1f1f1f"/><path d="M 97.63 227.79999999999998 A 32.54 32.54 0 0 1  130.17 195.26 L 97.63 227.79999999999998 A 32.54 32.54 0 0 0 130.17 195.26" fill="#222222"/><rect x="130.17142857142858" y="195.25714285714287" width="65.08571428571429" height="65.08571428571429" fill="#1f1f1f"/><path d="M 162.71 227.79999999999998 A 32.54 32.54 0 0 1  195.25 195.26 L 162.71 227.79999999999998 A 32.54 32.54 0 0 0 195.25 195.26" fill="#222222"/><rect x="260.34285714285716" y="195.25714285714287" width="65.08571428571429" height="65.08571428571429" fill="#1f1f1f"/><path d="M 260.34 227.79999999999998 A 32.54 32.54 0 0 1  292.88 195.26 L 260.34 227.79999999999998 A 32.54 32.54 0 0 0 292.88 195.26" fill="#2c2c2c"/><path d="M 292.89 260.34000000000003 A 32.54 32.54 0 0 1  325.43 227.8 L 292.89 260.34000000000003 A 32.54 32.54 0 0 0 325.43 227.8" fill="#222222"/><path d="M 715.94 195.26 A 65.09 65.09 0 0 1  781.0300000000001 260.35 L 715.94 195.26 A 65.09 65.09 0 0 0 781.0300000000001 260.35" fill="#242424"/><path d="M 260.34 260.34 A 65.09 65.09 0 0 1  325.42999999999995 325.42999999999995 L 260.34 260.34 A 65.09 65.09 0 0 0 325.42999999999995 325.42999999999995" fill="#252525"/><rect x="390.51428571428573" y="260.34285714285716" width="65.08571428571429" height="65.08571428571429" fill="#1f1f1f"/><path d="M 423.06 325.43 A 32.54 32.54 0 0 1  455.6 292.89 L 423.06 325.43 A 32.54 32.54 0 0 0 455.6 292.89" fill="#232323"/><path d="M 520.69 260.34 A 65.09 65.09 0 0 1  585.7800000000001 325.42999999999995 L 520.69 260.34 A 65.09 65.09 0 0 0 585.7800000000001 325.42999999999995" fill="#212121"/><rect x="585.7714285714286" y="260.34285714285716" width="65.08571428571429" height="65.08571428571429" fill="#1f1f1f"/><path d="M 585.77 292.89 A 32.54 32.54 0 0 1  618.31 325.43 L 585.77 292.89 A 32.54 32.54 0 0 0 618.31 325.43" fill="#252525"/><path d="M 455.6 325.43 A 65.09 65.09 0 0 1  520.69 390.52 L 455.6 325.43 A 65.09 65.09 0 0 0 520.69 390.52" fill="#232323"/><rect x="715.9428571428572" y="325.42857142857144" width="65.08571428571429" height="65.08571428571429" fill="#1f1f1f"/><path d="M 748.49 325.43 A 32.54 32.54 0 0 1  781.03 357.97 L 748.49 325.43 A 32.54 32.54 0 0 0 781.03 357.97" fill="#242424"/><path d="M 715.94 357.97 A 32.54 32.54 0 0 1  748.48 390.51000000000005 L 715.94 357.97 A 32.54 32.54 0 0 0 748.48 390.51000000000005" fill="#262626"/><rect x="195.25714285714287" y="390.51428571428573" width="65.08571428571429" height="65.08571428571429" fill="#1f1f1f"/><rect x="325.42857142857144" y="390.51428571428573" width="65.08571428571429" height="65.08571428571429" fill="#1f1f1f"/><path d="M 357.97 423.06 A 32.54 32.54 0 0 1  390.51000000000005 455.6 L 357.97 423.06 A 32.54 32.54 0 0 0 390.51000000000005 455.6" fill="#212121"/></g></svg>