<?xml version="1.0" standalone="no"?><svg xmlns:xlink="http://www.w3.org/1999/xlink" xmlns="http://www.w3.org/2000/svg" viewBox="0 0 1000 666.6666666666666" preserveAspectRatio="xMaxYMax slice"><g transform="scale(1.4632718759145449)"><rect x="0" y="0" width="683.4000000000001" height="455.6" fill="#1f1f1f"/><circle cx="14.24" cy="14.24" r="2.85" fill="#363636"/><circle cx="42.72" cy="14.24" r="2.85" fill="#6f6f6f"/><circle cx="71.19" cy="14.24" r="2.85" fill="#242424"/><circle cx="99.66999999999999" cy="14.24" r="2.85" fill="#282828"/><circle cx="128.14000000000001" cy="14.24" r="2.85" fill="#232323"/><circle cx="156.60999999999999" cy="14.24" r="2.85" fill="#5f5f5f"/><circle cx="185.09" cy="14.24" r="2.85" fill="#868686"/><circle cx="213.57" cy="14.24" r="2.85" fill="#232323"/><circle cx="242.04" cy="14.24" r="2.85" fill="#4f4f4f"/><circle cx="270.52000000000004" cy="14.24" r="2.85" fill="#8f8f8f"/><circle cx="298.99" cy="14.24" r="2.85" fill="#2a2a2a"/><circle cx="327.47" cy="14.24" r="2.85" fill="#2f2f2f"/><circle cx="355.94" cy="14.24" r="2.85" fill="#2d2d2d"/><circle cx="384.42" cy="14.24" r="2.85" fill="#777777"/><circle cx="412.89000000000004" cy="14.24" r="2.85" fill="#5d5d5d"/><circle cx="441.37" cy="14.24" r="2.85" fill="#6e6e6e"/><circle cx="469.84000000000003" cy="14.24" r="2.85" fill="#2b2b2b"/><circle cx="498.32000000000005" cy="14.24" r="2.85" fill="#282828"/><circle cx="526.7900000000001" cy="14.24" r="2.85" fill="#616161"/><circle cx="555.27" cy="14.24" r="2.85" fill="#3a3a3a"/><circle cx="583.74" cy="14.24" r="2.85" fill="#1f1f1f"/><circle cx="612.22" cy="14.24" r="2.85" fill="#969696"/><circle cx="640.69" cy="14.24" r="2.85" fill="#282828"/><circle cx="669.1700000000001" cy="14.24" r="2.85" fill="#353535"/><circle cx="14.24" cy="42.72" r="2.85" fill="#7c7c7c"/><circle cx="42.72" cy="42.72" r="2.85" fill="#2c2c2c"/><circle cx="71.19" cy="42.72" r="2.85" fill="#454545"/><circle cx="99.66999999999999" cy="42.72" r="2.85" fill="#bcbcbc"/><circle cx="128.14000000000001" cy="42.72" r="2.85" fill="#333333"/><circle cx="156.60999999999999" cy="42.72" r="2.85" fill="#707070"/><circle cx="185.09" cy="42.72" r="2.85" fill="#b0b0b0"/><circle cx="213.57" cy="42.72" r="2.85" fill="#adadad"/><circle cx="242.04" cy="42.72" r="2.85" fill="#2f2f2f"/><circle cx="270.52000000000004" cy="42.72" r="2.85" fill="#232323"/><circle cx="298.99" cy="42.72" r="2.85" fill="#363636"/><circle cx="327.47" cy="42.72" r="2.85" fill="#5e5e5e"/><circle cx="355.94" cy="42.72" r="2.85" fill="#777777"/><circle cx="384.42" cy="42.72" r="2.85" fill="#b2b2b2"/><circle cx="412.89000000000004" cy="42.72" r="2.85" fill="#2f2f2f"/><circle cx="441.37" cy="42.72" r="2.85" fill="#959595"/><circle cx="469.84000000000003" cy="42.72" r="2.85" fill="#838383"/><circle cx="498.32000000000005" cy="42.72" r="2.85" fill="#414141"/><circle cx="526.7900000000001" cy="42.72" r="2.85" fill="#737373"/><circle cx="555.27" cy="42.72" r="2.85" fill="#2e2e2e"/><circle cx="583.74" cy="42.72" r="2.85" fill="#3a3a3a"/><circle cx="612.22" cy="42.72" r="2.85" fill="#b3b3b3"/><circle cx="640.69" cy="42.72" r="2.85" fill="#8b8b8b"/><circle cx="669.1700000000001" cy="42.72" r="2.85" fill="#232323"/><circle cx="14.24" cy="71.19" r="2.85" fill="#222222"/><circle cx="42.72" cy="71.19" r="2.85" fill="#535353"/><circle cx="71.19" cy="71.19" r="2.85" fill="#373737"/><circle cx="99.66999999999999" cy="71.19" r="2.85" fill="#252525"/><circle cx="128.14000000000001" cy="71.19" r="2.85" fill="#464646"/><circle cx="156.60999999999999" cy="71.19" r="2.85" fill="#888888"/><circle cx="185.09" cy="71.19" r="2.85" fill="#383838"/><circle cx="213.57" cy="71.19" r="2.85" fill="#4a4a4a"/><circle cx="242.04" cy="71.19" r="2.85" fill="#888888"/><circle cx="270.52000000000004" cy="71.19" r="2.85" fill="#494949"/><circle cx="298.99" cy="71.19" r="2.85" fill="#646464"/><circle cx="327.47" cy="71.19" r="2.85" fill="#494949"/><circle cx="355.94" cy="71.19" r="2.85" fill="#343434"/><circle cx="384.42" cy="71.19" r="2.85" fill="#8a8a8a"/><circle cx="412.89000000000004" cy="71.19" r="2.85" fill="#292929"/><circle cx="441.37" cy="71.19" r="2.85" fill="#5a5a5a"/><circle cx="469.84000000000003" cy="71.19" r="2.85" fill="#333333"/><circle cx="498.32000000000005" cy="71.19" r="2.85" fill="#282828"/><circle cx="526.7900000000001" cy="71.19" r="2.85" fill="#202020"/><circle cx="555.27" cy="71.19" r="2.85" fill="#6c6c6c"/><circle cx="583.74" cy="71.19" r="2.85" fill="#343434"/><circle cx="612.22" cy="71.19" r="2.85" fill="#3c3c3c"/><circle cx="640.69" cy="71.19" r="2.85" fill="#747474"/><circle cx="669.1700000000001" cy="71.19" r="2.85" fill="#242424"/><circle cx="14.24" cy="99.66999999999999" r="2.85" fill="#9a9a9a"/><circle cx="42.72" cy="99.66999999999999" r="2.85" fill="#939393"/><circle cx="71.19" cy="99.66999999999999" r="2.85" fill="#333333"/><circle cx="99.66999999999999" cy="99.66999999999999" r="2.85" fill="#2a2a2a"/><circle cx="128.14000000000001" cy="99.66999999999999" r="2.85" fill="#6a6a6a"/><circle cx="156.60999999999999" cy="99.66999999999999" r="2.85" fill="#383838"/><circle cx="185.09" cy="99.66999999999999" r="2.85" fill="#2c2c2c"/><circle cx="213.57" cy="99.66999999999999" r="2.85" fill="#343434"/><circle cx="242.04" cy="99.66999999999999" r="2.85" fill="#2b2b2b"/><circle cx="270.52000000000004" cy="99.66999999999999" r="2.85" fill="#323232"/><circle cx="298.99" cy="99.66999999999999" r="2.85" fill="#717171"/><circle cx="327.47" cy="99.66999999999999" r="2.85" fill="#353535"/><circle cx="355.94" cy="99.66999999999999" r="2.85" fill="#4b4b4b"/><circle cx="384.42" cy="99.66999999999999" r="2.85" fill="#222222"/><circle cx="412.89000000000004" cy="99.66999999999999" r="2.85" fill="#2a2a2a"/><circle cx="441.37" cy="99.66999999999999" r="2.85" fill="#292929"/><circle cx="469.84000000000003" cy="99.66999999999999" r="2.85" fill="#525252"/><circle cx="498.32000000000005" cy="99.66999999999999" r="2.85" fill="#3d3d3d"/><circle cx="526.7900000000001" cy="99.66999999999999" r="2.85" fill="#232323"/><circle cx="555.27" cy="99.66999999999999" r="2.85" fill="#2e2e2e"/><circle cx="583.74" cy="99.66999999999999" r="2.85" fill="#989898"/><circle cx="612.22" cy="99.66999999999999" r="2.85" fill="#282828"/><circle cx="640.69" cy="99.66999999999999" r="2.85" fill="#3c3c3c"/><circle cx="669.1700000000001" cy="99.66999999999999" r="2.85" fill="#6a6a6a"/><circle cx="14.24" cy="128.14000000000001" r="2.85" fill="#202020"/><circle cx="42.72" cy="128.14000000000001" r="2.85" fill="#292929"/><circle cx="71.19" cy="128.14000000000001" r="2.85" fill="#bbbbbb"/><circle cx="99.66999999999999" cy="128.14000000000001" r="2.85" fill="#303030"/><circle cx="128.14000000000001" cy="128.14000000000001" r="2.85" fill="#222222"/><circle cx="156.60999999999999" cy="128.14000000000001" r="2.85" fill="#8b8b8b"/><circle cx="185.09" cy="128.14000000000001" r="2.85" fill="#242424"/><circle cx="213.57" cy="128.14000000000001" r="2.85" fill="#2b2b2b"/><circle cx="242.04" cy="128.14000000000001" r="2.85" fill="#3d3d3d"/><circle cx="270.52000000000004" cy="128.14000000000001" r="2.85" fill="#262626"/><circle cx="298.99" cy="128.14000000000001" r="2.85" fill="#787878"/><circle cx="327.47" cy="128.14000000000001" r="2.85" fill="#2d2d2d"/><circle cx="355.94" cy="128.14000000000001" r="2.85" fill="#323232"/><circle cx="384.42" cy="128.14000000000001" r="2.85" fill="#333333"/><circle cx="412.89000000000004" cy="128.14000000000001" r="2.85" fill="#3c3c3c"/><circle cx="441.37" cy="128.14000000000001" r="2.85" fill="#5f5f5f"/><circle cx="469.84000000000003" cy="128.14000000000001" r="2.85" fill="#343434"/><circle cx="498.32000000000005" cy="128.14000000000001" r="2.85" fill="#4d4d4d"/><circle cx="526.7900000000001" cy="128.14000000000001" r="2.85" fill="#393939"/><circle cx="555.27" cy="128.14000000000001" r="2.85" fill="#2e2e2e"/><circle cx="583.74" cy="128.14000000000001" r="2.85" fill="#232323"/><circle cx="612.22" cy="128.14000000000001" r="2.85" fill="#404040"/><circle cx="640.69" cy="128.14000000000001" r="2.85" fill="#222222"/><circle cx="669.1700000000001" cy="128.14000000000001" r="2.85" fill="#afafaf"/><circle cx="14.24" cy="156.60999999999999" r="2.85" fill="#282828"/><circle cx="42.72" cy="156.60999999999999" r="2.85" fill="#565656"/><circle cx="71.19" cy="156.60999999999999" r="2.85" fill="#222222"/><circle cx="99.66999999999999" cy="156.60999999999999" r="2.85" fill="#2f2f2f"/><circle cx="128.14000000000001" cy="156.60999999999999" r="2.85" fill="#9a9a9a"/><circle cx="156.60999999999999" cy="156.60999999999999" r="2.85" fill="#383838"/><circle cx="185.09" cy="156.60999999999999" r="2.85" fill="#b4b4b4"/><circle cx="213.57" cy="156.60999999999999" r="2.85" fill="#919191"/><circle cx="242.04" cy="156.60999999999999" r="2.85" fill="#575757"/><circle cx="270.52000000000004" cy="156.60999999999999" r="2.85" fill="#373737"/><circle cx="298.99" cy="156.60999999999999" r="2.85" fill="#7f7f7f"/><circle cx="327.47" cy="156.60999999999999" r="2.85" fill="#313131"/><circle cx="355.94" cy="156.60999999999999" r="2.85" fill="#282828"/><circle cx="384.42" cy="156.60999999999999" r="2.85" fill="#656565"/><circle cx="412.89000000000004" cy="156.60999999999999" r="2.85" fill="#727272"/><circle cx="441.37" cy="156.60999999999999" r="2.85" fill="#393939"/><circle cx="469.84000000000003" cy="156.60999999999999" r="2.85" fill="#383838"/><circle cx="498.32000000000005" cy="156.60999999999999" r="2.85" fill="#2d2d2d"/><circle cx="526.7900000000001" cy="156.60999999999999" r="2.85" fill="#9a9a9a"/><circle cx="555.27" cy="156.60999999999999" r="2.85" fill="#2c2c2c"/><circle cx="583.74" cy="156.60999999999999" r="2.85" fill="#252525"/><circle cx="612.22" cy="156.60999999999999" r="2.85" fill="#4f4f4f"/><circle cx="640.69" cy="156.60999999999999" r="2.85" fill="#6f6f6f"/><circle cx="669.1700000000001" cy="156.60999999999999" r="2.85" fill="#2e2e2e"/><circle cx="14.24" cy="185.09" r="2.85" fill="#7e7e7e"/><circle cx="42.72" cy="185.09" r="2.85" fill="#4a4a4a"/><circle cx="71.19" cy="185.09" r="2.85" fill="#6b6b6b"/><circle cx="99.66999999999999" cy="185.09" r="2.85" fill="#3b3b3b"/><circle cx="128.14000000000001" cy="185.09" r="2.85" fill="#252525"/><circle cx="156.60999999999999" cy="185.09" r="2.85" fill="#4e4e4e"/><circle cx="185.09" cy="185.09" r="2.85" fill="#272727"/><circle cx="213.57" cy="185.09" r="2.85" fill="#656565"/><circle cx="242.04" cy="185.09" r="2.85" fill="#6c6c6c"/><circle cx="270.52000000000004" cy="185.09" r="2.85" fill="#313131"/><circle cx="298.99" cy="185.09" r="2.85" fill="#343434"/><circle cx="327.47" cy="185.09" r="2.85" fill="#858585"/><circle cx="355.94" cy="185.09" r="2.85" fill="#717171"/><circle cx="384.42" cy="185.09" r="2.85" fill="#383838"/><circle cx="412.89000000000004" cy="185.09" r="2.85" fill="#323232"/><circle cx="441.37" cy="185.09" r="2.85" fill="#343434"/><circle cx="469.84000000000003" cy="185.09" r="2.85" fill="#9a9a9a"/><circle cx="498.32000000000005" cy="185.09" r="2.85" fill="#343434"/><circle cx="526.7900000000001" cy="185.09" r="2.85" fill="#a1a1a1"/><circle cx="555.27" cy="185.09" r="2.85" fill="#898989"/><circle cx="583.74" cy="185.09" r="2.85" fill="#686868"/><circle cx="612.22" cy="185.09" r="2.85" fill="#939393"/><circle cx="640.69" cy="185.09" r="2.85" fill="#b1b1b1"/><circle cx="669.1700000000001" cy="185.09" r="2.85" fill="#5b5b5b"/><circle cx="14.24" cy="213.57" r="2.85" fill="#595959"/><circle cx="42.72" cy="213.57" r="2.85" fill="#393939"/><circle cx="71.19" cy="213.57" r="2.85" fill="#373737"/><circle cx="99.66999999999999" cy="213.57" r="2.85" fill="#6e6e6e"/><circle cx="128.14000000000001" cy="213.57" r="2.85" fill="#8c8c8c"/><circle cx="156.60999999999999" cy="213.57" r="2.85" fill="#282828"/><circle cx="185.09" cy="213.57" r="2.85" fill="#313131"/><circle cx="213.57" cy="213.57" r="2.85" fill="#303030"/><circle cx="242.04" cy="213.57" r="2.85" fill="#4f4f4f"/><circle cx="270.52000000000004" cy="213.57" r="2.85" fill="#3a3a3a"/><circle cx="298.99" cy="213.57" r="2.85" fill="#464646"/><circle cx="327.47" cy="213.57" r="2.85" fill="#5d5d5d"/><circle cx="355.94" cy="213.57" r="2.85" fill="#252525"/><circle cx="384.42" cy="213.57" r="2.85" fill="#7a7a7a"/><circle cx="412.89000000000004" cy="213.57" r="2.85" fill="#bababa"/><circle cx="441.37" cy="213.57" r="2.85" fill="#222222"/><circle cx="469.84000000000003" cy="213.57" r="2.85" fill="#696969"/><circle cx="498.32000000000005" cy="213.57" r="2.85" fill="#373737"/><circle cx="526.7900000000001" cy="213.57" r="2.85" fill="#353535"/><circle cx="555.27" cy="213.57" r="2.85" fill="#2e2e2e"/><circle cx="583.74" cy="213.57" r="2.85" fill="#4e4e4e"/><circle cx="612.22" cy="213.57" r="2.85" fill="#656565"/><circle cx="640.69" cy="213.57" r="2.85" fill="#636363"/><circle cx="669.1700000000001" cy="213.57" r="2.85" fill="#686868"/><circle cx="14.24" cy="242.04" r="2.85" fill="#969696"/><circle cx="42.72" cy="242.04" r="2.85" fill="#aaaaaa"/><circle cx="71.19" cy="242.04" r="2.85" fill="#818181"/><circle cx="99.66999999999999" cy="242.04" r="2.85" fill="#333333"/><circle cx="128.14000000000001" cy="242.04" r="2.85" fill="#3c3c3c"/><circle cx="156.60999999999999" cy="242.04" r="2.85" fill="#272727"/><circle cx="185.09" cy="242.04" r="2.85" fill="#323232"/><circle cx="213.57" cy="242.04" r="2.85" fill="#393939"/><circle cx="242.04" cy="242.04" r="2.85" fill="#323232"/><circle cx="270.52000000000004" cy="242.04" r="2.85" fill="#aaaaaa"/><circle cx="298.99" cy="242.04" r="2.85" fill="#3f3f3f"/><circle cx="327.47" cy="242.04" r="2.85" fill="#727272"/><circle cx="355.94" cy="242.04" r="2.85" fill="#b6b6b6"/><circle cx="384.42" cy="242.04" r="2.85" fill="#505050"/><circle cx="412.89000000000004" cy="242.04" r="2.85" fill="#232323"/><circle cx="441.37" cy="242.04" r="2.85" fill="#afafaf"/><circle cx="469.84000000000003" cy="242.04" r="2.85" fill="#717171"/><circle cx="498.32000000000005" cy="242.04" r="2.85" fill="#afafaf"/><circle cx="526.7900000000001" cy="242.04" r="2.85" fill="#222222"/><circle cx="555.27" cy="242.04" r="2.85" fill="#333333"/><circle cx="583.74" cy="242.04" r="2.85" fill="#2c2c2c"/><circle cx="612.22" cy="242.04" r="2.85" fill="#565656"/><circle cx="640.69" cy="242.04" r="2.85" fill="#3b3b3b"/><circle cx="669.1700000000001" cy="242.04" r="2.85" fill="#545454"/><circle cx="14.24" cy="270.52000000000004" r="2.85" fill="#424242"/><circle cx="42.72" cy="270.52000000000004" r="2.85" fill="#7a7a7a"/><circle cx="71.19" cy="270.52000000000004" r="2.85" fill="#292929"/><circle cx="99.66999999999999" cy="270.52000000000004" r="2.85" fill="#202020"/><circle cx="128.14000000000001" cy="270.52000000000004" r="2.85" fill="#6f6f6f"/><circle cx="156.60999999999999" cy="270.52000000000004" r="2.85" fill="#2f2f2f"/><circle cx="185.09" cy="270.52000000000004" r="2.85" fill="#636363"/><circle cx="213.57" cy="270.52000000000004" r="2.85" fill="#696969"/><circle cx="242.04" cy="270.52000000000004" r="2.85" fill="#252525"/><circle cx="270.52000000000004" cy="270.52000000000004" r="2.85" fill="#454545"/><circle cx="298.99" cy="270.52000000000004" r="2.85" fill="#a4a4a4"/><circle cx="327.47" cy="270.52000000000004" r="2.85" fill="#1f1f1f"/><circle cx="355.94" cy="270.52000000000004" r="2.85" fill="#2b2b2b"/><circle cx="384.42" cy="270.52000000000004" r="2.85" fill="#272727"/><circle cx="412.89000000000004" cy="270.52000000000004" r="2.85" fill="#9a9a9a"/><circle cx="441.37" cy="270.52000000000004" r="2.85" fill="#212121"/><circle cx="469.84000000000003" cy="270.52000000000004" r="2.85" fill="#494949"/><circle cx="498.32000000000005" cy="270.52000000000004" r="2.85" fill="#333333"/><circle cx="526.7900000000001" cy="270.52000000000004" r="2.85" fill="#363636"/><circle cx="555.27" cy="270.52000000000004" r="2.85" fill="#3c3c3c"/><circle cx="583.74" cy="270.52000000000004" r="2.85" fill="#373737"/><circle cx="612.22" cy="270.52000000000004" r="2.85" fill="#3a3a3a"/><circle cx="640.69" cy="270.52000000000004" r="2.85" fill="#2f2f2f"/><circle cx="669.1700000000001" cy="270.52000000000004" r="2.85" fill="#a1a1a1"/><circle cx="14.24" cy="298.99" r="2.85" fill="#888888"/><circle cx="42.72" cy="298.99" r="2.85" fill="#292929"/><circle cx="71.19" cy="298.99" r="2.85" fill="#2f2f2f"/><circle cx="99.66999999999999" cy="298.99" r="2.85" fill="#282828"/><circle cx="128.14000000000001" cy="298.99" r="2.85" fill="#898989"/><circle cx="156.60999999999999" cy="298.99" r="2.85" fill="#a4a4a4"/><circle cx="185.09" cy="298.99" r="2.85" fill="#313131"/><circle cx="213.57" cy="298.99" r="2.85" fill="#434343"/><circle cx="242.04" cy="298.99" r="2.85" fill="#252525"/><circle cx="270.52000000000004" cy="298.99" r="2.85" fill="#2a2a2a"/><circle cx="298.99" cy="298.99" r="2.85" fill="#2d2d2d"/><circle cx="327.47" cy="298.99" r="2.85" fill="#3d3d3d"/><circle cx="355.94" cy="298.99" r="2.85" fill="#3c3c3c"/><circle cx="384.42" cy="298.99" r="2.85" fill="#363636"/><circle cx="412.89000000000004" cy="298.99" r="2.85" fill="#373737"/><circle cx="441.37" cy="298.99" r="2.85" fill="#4a4a4a"/><circle cx="469.84000000000003" cy="298.99" r="2.85" fill="#494949"/><circle cx="498.32000000000005" cy="298.99" r="2.85" fill="#222222"/><circle cx="526.7900000000001" cy="298.99" r="2.85" fill="#bbbbbb"/><circle cx="555.27" cy="298.99" r="2.85" fill="#383838"/><circle cx="583.74" cy="298.99" r="2.85" fill="#828282"/><circle cx="612.22" cy="298.99" r="2.85" fill="#373737"/><circle cx="640.69" cy="298.99" r="2.85" fill="#717171"/><circle cx="669.1700000000001" cy="298.99" r="2.85" fill="#282828"/><circle cx="14.24" cy="327.47" r="2.85" fill="#2e2e2e"/><circle cx="42.72" cy="327.47" r="2.85" fill="#252525"/><circle cx="71.19" cy="327.47" r="2.85" fill="#272727"/><circle cx="99.66999999999999" cy="327.47" r="2.85" fill="#515151"/><circle cx="128.14000000000001" cy="327.47" r="2.85" fill="#2c2c2c"/><circle cx="156.60999999999999" cy="327.47" r="2.85" fill="#3d3d3d"/><circle cx="185.09" cy="327.47" r="2.85" fill="#2d2d2d"/><circle cx="213.57" cy="327.47" r="2.85" fill="#2d2d2d"/><circle cx="242.04" cy="327.47" r="2.85" fill="#262626"/><circle cx="270.52000000000004" cy="327.47" r="2.85" fill="#363636"/><circle cx="298.99" cy="327.47" r="2.85" fill="#2a2a2a"/><circle cx="327.47" cy="327.47" r="2.85" fill="#363636"/><circle cx="355.94" cy="327.47" r="2.85" fill="#2d2d2d"/><circle cx="384.42" cy="327.47" r="2.85" fill="#3a3a3a"/><circle cx="412.89000000000004" cy="327.47" r="2.85" fill="#464646"/><circle cx="441.37" cy="327.47" r="2.85" fill="#303030"/><circle cx="469.84000000000003" cy="327.47" r="2.85" fill="#454545"/><circle cx="498.32000000000005" cy="327.47" r="2.85" fill="#313131"/><circle cx="526.7900000000001" cy="327.47" r="2.85" fill="#888888"/><circle cx="555.27" cy="327.47" r="2.85" fill="#262626"/><circle cx="583.74" cy="327.47" r="2.85" fill="#b8b8b8"/><circle cx="612.22" cy="327.47" r="2.85" fill="#484848"/><circle cx="640.69" cy="327.47" r="2.85" fill="#313131"/><circle cx="669.1700000000001" cy="327.47" r="2.85" fill="#2a2a2a"/><circle cx="14.24" cy="355.94" r="2.85" fill="#6d6d6d"/><circle cx="42.72" cy="355.94" r="2.85" fill="#404040"/><circle cx="71.19" cy="355.94" r="2.85" fill="#212121"/><circle cx="99.66999999999999" cy="355.94" r="2.85" fill="#a9a9a9"/><circle cx="128.14000000000001" cy="355.94" r="2.85" fill="#333333"/><circle cx="156.60999999999999" cy="355.94" r="2.85" fill="#222222"/><circle cx="185.09" cy="355.94" r="2.85" fill="#222222"/><circle cx="213.57" cy="355.94" r="2.85" fill="#272727"/><circle cx="242.04" cy="355.94" r="2.85" fill="#333333"/><circle cx="270.52000000000004" cy="355.94" r="2.85" fill="#383838"/><circle cx="298.99" cy="355.94" r="2.85" fill="#bdbdbd"/><circle cx="327.47" cy="355.94" r="2.85" fill="#4d4d4d"/><circle cx="355.94" cy="355.94" r="2.85" fill="#272727"/><circle cx="384.42" cy="355.94" r="2.85" fill="#393939"/><circle cx="412.89000000000004" cy="355.94" r="2.85" fill="#474747"/><circle cx="441.37" cy="355.94" r="2.85" fill="#353535"/><circle cx="469.84000000000003" cy="355.94" r="2.85" fill="#868686"/><circle cx="498.32000000000005" cy="355.94" r="2.85" fill="#333333"/><circle cx="526.7900000000001" cy="355.94" r="2.85" fill="#4d4d4d"/><circle cx="555.27" cy="355.94" r="2.85" fill="#2d2d2d"/><circle cx="583.74" cy="355.94" r="2.85" fill="#252525"/><circle cx="612.22" cy="355.94" r="2.85" fill="#262626"/><circle cx="640.69" cy="355.94" r="2.85" fill="#626262"/><circle cx="669.1700000000001" cy="355.94" r="2.85" fill="#2a2a2a"/><circle cx="14.24" cy="384.42" r="2.85" fill="#2c2c2c"/><circle cx="42.72" cy="384.42" r="2.85" fill="#b3b3b3"/><circle cx="71.19" cy="384.42" r="2.85" fill="#262626"/><circle cx="99.66999999999999" cy="384.42" r="2.85" fill="#303030"/><circle cx="128.14000000000001" cy="384.42" r="2.85" fill="#2a2a2a"/><circle cx="156.60999999999999" cy="384.42" r="2.85" fill="#303030"/><circle cx="185.09" cy="384.42" r="2.85" fill="#232323"/><circle cx="213.57" cy="384.42" r="2.85" fill="#2b2b2b"/><circle cx="242.04" cy="384.42" r="2.85" fill="#a1a1a1"/><circle cx="270.52000000000004" cy="384.42" r="2.85" fill="#292929"/><circle cx="298.99" cy="384.42" r="2.85" fill="#2a2a2a"/><circle cx="327.47" cy="384.42" r="2.85" fill="#606060"/><circle cx="355.94" cy="384.42" r="2.85" fill="#363636"/><circle cx="384.42" cy="384.42" r="2.85" fill="#393939"/><circle cx="412.89000000000004" cy="384.42" r="2.85" fill="#474747"/><circle cx="441.37" cy="384.42" r="2.85" fill="#797979"/><circle cx="469.84000000000003" cy="384.42" r="2.85" fill="#838383"/><circle cx="498.32000000000005" cy="384.42" r="2.85" fill="#323232"/><circle cx="526.7900000000001" cy="384.42" r="2.85" fill="#b5b5b5"/><circle cx="555.27" cy="384.42" r="2.85" fill="#222222"/><circle cx="583.74" cy="384.42" r="2.85" fill="#2f2f2f"/><circle cx="612.22" cy="384.42" r="2.85" fill="#272727"/><circle cx="640.69" cy="384.42" r="2.85" fill="#2e2e2e"/><circle cx="669.1700000000001" cy="384.42" r="2.85" fill="#2b2b2b"/><circle cx="14.24" cy="412.89000000000004" r="2.85" fill="#aeaeae"/><circle cx="42.72" cy="412.89000000000004" r="2.85" fill="#343434"/><circle cx="71.19" cy="412.89000000000004" r="2.85" fill="#363636"/><circle cx="99.66999999999999" cy="412.89000000000004" r="2.85" fill="#575757"/><circle cx="128.14000000000001" cy="412.89000000000004" r="2.85" fill="#323232"/><circle cx="156.60999999999999" cy="412.89000000000004" r="2.85" fill="#313131"/><circle cx="185.09" cy="412.89000000000004" r="2.85" fill="#272727"/><circle cx="213.57" cy="412.89000000000004" r="2.85" fill="#303030"/><circle cx="242.04" cy="412.89000000000004" r="2.85" fill="#363636"/><circle cx="270.52000000000004" cy="412.89000000000004" r="2.85" fill="#323232"/><circle cx="298.99" cy="412.89000000000004" r="2.85" fill="#434343"/><circle cx="327.47" cy="412.89000000000004" r="2.85" fill="#757575"/><circle cx="355.94" cy="412.89000000000004" r="2.85" fill="#262626"/><circle cx="384.42" cy="412.89000000000004" r="2.85" fill="#373737"/><circle cx="412.89000000000004" cy="412.89000000000004" r="2.85" fill="#353535"/><circle cx="441.37" cy="412.89000000000004" r="2.85" fill="#272727"/><circle cx="469.84000000000003" cy="412.89000000000004" r="2.85" fill="#a9a9a9"/><circle cx="498.32000000000005" cy="412.89000000000004" r="2.85" fill="#ababab"/><circle cx="526.7900000000001" cy="412.89000000000004" r="2.85" fill="#2d2d2d"/><circle cx="555.27" cy="412.89000000000004" r="2.85" fill="#6a6a6a"/><circle cx="583.74" cy="412.89000000000004" r="2.85" fill="#282828"/><circle cx="612.22" cy="412.89000000000004" r="2.85" fill="#393939"/><circle cx="640.69" cy="412.89000000000004" r="2.85" fill="#343434"/><circle cx="669.1700000000001" cy="412.89000000000004" r="2.85" fill="#373737"/><circle cx="14.24" cy="441.37" r="2.85" fill="#323232"/><circle cx="42.72" cy="441.37" r="2.85" fill="#b3b3b3"/><circle cx="71.19" cy="441.37" r="2.85" fill="#2d2d2d"/><circle cx="99.66999999999999" cy="441.37" r="2.85" fill="#b5b5b5"/><circle cx="128.14000000000001" cy="441.37" r="2.85" fill="#626262"/><circle cx="156.60999999999999" cy="441.37" r="2.85" fill="#323232"/><circle cx="185.09" cy="441.37" r="2.85" fill="#272727"/><circle cx="213.57" cy="441.37" r="2.85" fill="#919191"/><circle cx="242.04" cy="441.37" r="2.85" fill="#212121"/><circle cx="270.52000000000004" cy="441.37" r="2.85" fill="#a7a7a7"/><circle cx="298.99" cy="441.37" r="2.85" fill="#373737"/><circle cx="327.47" cy="441.37" r="2.85" fill="#333333"/><circle cx="355.94" cy="441.37" r="2.85" fill="#252525"/><circle cx="384.42" cy="441.37" r="2.85" fill="#494949"/><circle cx="412.89000000000004" cy="441.37" r="2.85" fill="#2e2e2e"/><circle cx="441.37" cy="441.37" r="2.85" fill="#252525"/><circle cx="469.84000000000003" cy="441.37" r="2.85" fill="#4c4c4c"/><circle cx="498.32000000000005" cy="441.37" r="2.85" fill="#282828"/><circle cx="526.7900000000001" cy="441.37" r="2.85" fill="#262626"/><circle cx="555.27" cy="441.37" r="2.85" fill="#323232"/><circle cx="583.74" cy="441.37" r="2.85" fill="#5e5e5e"/><circle cx="612.22" cy="441.37" r="2.85" fill="#2f2f2f"/><circle cx="640.69" cy="441.37" r="2.85" fill="#292929"/><circle cx="669.1700000000001" cy="441.37" r="2.85" fill="#bababa"/></g></svg>