<?xml version="1.0" standalone="no"?><svg xmlns:xlink="http://www.w3.org/1999/xlink" xmlns="http://www.w3.org/2000/svg" viewBox="0 0 1000 583.3360007682213" preserveAspectRatio="xMaxYMax slice"><g transform="scale(1.2803687461989053)"><rect x="0" y="0" width="781.0285714285715" height="455.6" fill="#1f1f1f"/><circle cx="32.54" cy="32.54" r="6.51" fill="#545454"/><circle cx="97.63000000000001" cy="32.54" r="6.51" fill="#393939"/><circle cx="162.72" cy="32.54" r="6.51" fill="#353535"/><circle cx="227.79999999999998" cy="32.54" r="6.51" fill="#252525"/><circle cx="292.89" cy="32.54" r="6.51" fill="#393939"/><circle cx="357.96999999999997" cy="32.54" r="6.51" fill="#272727"/><circle cx="423.06" cy="32.54" r="6.51" fill="#393939"/><circle cx="488.14" cy="32.54" r="6.51" fill="#717171"/><circle cx="553.23" cy="32.54" r="6.51" fill="#373737"/><circle cx="618.3199999999999" cy="32.54" r="6.51" fill="#b3b3b3"/><circle cx="683.4" cy="32.54" r="6.51" fill="#b3b3b3"/><circle cx="748.49" cy="32.54" r="6.51" fill="#262626"/><circle cx="32.54" cy="97.63000000000001" r="6.51" fill="#a8a8a8"/><circle cx="97.63000000000001" cy="97.63000000000001" r="6.51" fill="#a6a6a6"/><circle cx="162.72" cy="97.63000000000001" r="6.51" fill="#232323"/><circle cx="227.79999999999998" cy="97.63000000000001" r="6.51" fill="#494949"/><circle cx="292.89" cy="97.63000000000001" r="6.51" fill="#2b2b2b"/><circle cx="357.96999999999997" cy="97.63000000000001" r="6.51" fill="#373737"/><circle cx="423.06" cy="97.63000000000001" r="6.51" fill="#9c9c9c"/><circle cx="488.14" cy="97.63000000000001" r="6.51" fill="#242424"/><circle cx="553.23" cy="97.63000000000001" r="6.51" fill="#343434"/><circle cx="618.3199999999999" cy="97.63000000000001" r="6.51" fill="#b9b9b9"/><circle cx="683.4" cy="97.63000000000001" r="6.51" fill="#353535"/><circle cx="748.49" cy="97.63000000000001" r="6.51" fill="#979797"/><circle cx="32.54" cy="162.72" r="6.51" fill="#3c3c3c"/><circle cx="97.63000000000001" cy="162.72" r="6.51" fill="#9c9c9c"/><circle cx="162.72" cy="162.72" r="6.51" fill="#454545"/><circle cx="227.79999999999998" cy="162.72" r="6.51" fill="#292929"/><circle cx="292.89" cy="162.72" r="6.51" fill="#202020"/><circle cx="357.96999999999997" cy="162.72" r="6.51" fill="#323232"/><circle cx="423.06" cy="162.72" r="6.51" fill="#373737"/><circle cx="488.14" cy="162.72" r="6.51" fill="#303030"/><circle cx="553.23" cy="162.72" r="6.51" fill="#aeaeae"/><circle cx="618.3199999999999" cy="162.72" r="6.51" fill="#9a9a9a"/><circle cx="683.4" cy="162.72" r="6.51" fill="#333333"/><circle cx="748.49" cy="162.72" r="6.51" fill="#313131"/><circle cx="32.54" cy="227.79999999999998" r="6.51" fill="#393939"/><circle cx="97.63000000000001" cy="227.79999999999998" r="6.51" fill="#838383"/><circle cx="162.72" cy="227.79999999999998" r="6.51" fill="#292929"/><circle cx="227.79999999999998" cy="227.79999999999998" r="6.51" fill="#333333"/><circle cx="292.89" cy="227.79999999999998" r="6.51" fill="#353535"/><circle cx="357.96999999999997" cy="227.79999999999998" r="6.51" fill="#4c4c4c"/><circle cx="423.06" cy="227.79999999999998" r="6.51" fill="#343434"/><circle cx="488.14" cy="227.79999999999998" r="6.51" fill="#272727"/><circle cx="553.23" cy="227.79999999999998" r="6.51" fill="#9a9a9a"/><circle cx="618.3199999999999" cy="227.79999999999998" r="6.51" fill="#383838"/><circle cx="683.4" cy="227.79999999999998" r="6.51" fill="#232323"/><circle cx="748.49" cy="227.79999999999998" r="6.51" fill="#9e9e9e"/><circle cx="32.54" cy="292.89" r="6.51" fill="#4e4e4e"/><circle cx="97.63000000000001" cy="292.89" r="6.51" fill="#343434"/><circle cx="162.72" cy="292.89" r="6.51" fill="#a7a7a7"/><circle cx="227.79999999999998" cy="292.89" r="6.51" fill="#a3a3a3"/><circle cx="292.89" cy="292.89" r="6.51" fill="#565656"/><circle cx="357.96999999999997" cy="292.89" r="6.51" fill="#a3a3a3"/><circle cx="423.06" cy="292.89" r="6.51" fill="#757575"/><circle cx="488.14" cy="292.89" r="6.51" fill="#949494"/><circle cx="553.23" cy="292.89" r="6.51" fill="#494949"/><circle cx="618.3199999999999" cy="292.89" r="6.51" fill="#595959"/><circle cx="683.4" cy="292.89" r="6.51" fill="#383838"/><circle cx="748.49" cy="292.89" r="6.51" fill="#b6b6b6"/><circle cx="32.54" cy="357.96999999999997" r="6.51" fill="#2a2a2a"/><circle cx="97.63000000000001" cy="357.96999999999997" r="6.51" fill="#343434"/><circle cx="162.72" cy="357.96999999999997" r="6.51" fill="#303030"/><circle cx="227.79999999999998" cy="357.96999999999997" r="6.51" fill="#707070"/><circle cx="292.89" cy="357.96999999999997" r="6.51" fill="#4e4e4e"/><circle cx="357.96999999999997" cy="357.96999999999997" r="6.51" fill="#adadad"/><circle cx="423.06" cy="357.96999999999997" r="6.51" fill="#383838"/><circle cx="488.14" cy="357.96999999999997" r="6.51" fill="#333333"/><circle cx="553.23" cy="357.96999999999997" r="6.51" fill="#303030"/><circle cx="618.3199999999999" cy="357.96999999999997" r="6.51" fill="#383838"/><circle cx="683.4" cy="357.96999999999997" r="6.51" fill="#262626"/><circle cx="748.49" cy="357.96999999999997" r="6.51" fill="#202020"/><circle cx="32.54" cy="423.06" r="6.51" fill="#202020"/><circle cx="97.63000000000001" cy="423.06" r="6.51" fill="#3a3a3a"/><circle cx="162.72" cy="423.06" r="6.51" fill="#6f6f6f"/><circle cx="227.79999999999998" cy="423.06" r="6.51" fill="#242424"/><circle cx="292.89" cy="423.06" r="6.51" fill="#2b2b2b"/><circle cx="357.96999999999997" cy="423.06" r="6.51" fill="#3a3a3a"/><circle cx="423.06" cy="423.06" r="6.51" fill="#7c7c7c"/><circle cx="488.14" cy="423.06" r="6.51" fill="#6c6c6c"/><circle cx="553.23" cy="423.06" r="6.51" fill="#363636"/><circle cx="618.3199999999999" cy="423.06" r="6.51" fill="#3b3b3b"/><circle cx="683.4" cy="423.06" r="6.51" fill="#474747"/><circle cx="748.49" cy="423.06" r="6.51" fill="#252525"/></g></svg>