<?xml version="1.0" standalone="no"?><svg xmlns:xlink="http://www.w3.org/1999/xlink" xmlns="http://www.w3.org/2000/svg" viewBox="0 0 1000 583.3360007682213" preserveAspectRatio="xMaxYMax slice"><g transform="scale(1.2803687461989053)"><rect x="0" y="0" width="781.0285714285715" height="455.6" fill="#333333"/><path d="M 260.34 0 A 65.09 65.09 0 0 1  325.42999999999995 65.09 L 260.34 0 A 65.09 65.09 0 0 0 325.42999999999995 65.09" fill="#252525"/><path d="M 325.43 65.09 A 65.09 65.09 0 0 1  390.52 0 L 325.43 65.09 A 65.09 65.09 0 0 0 390.52 0" fill="#444444"/><rect x="455.6" y="0" width="65.08571428571429" height="65.08571428571429" fill="#333333"/><rect x="650.8571428571429" y="0" width="65.08571428571429" height="65.08571428571429" fill="#333333"/><path d="M 650.86 32.54 A 32.54 32.54 0 0 1  683.4 0 L 650.86 32.54 A 32.54 32.54 0 0 0 683.4 0" fill="#616161"/><rect x="715.9428571428572" y="0" width="65.08571428571429" height="65.08571428571429" fill="#333333"/><path d="M 715.94 32.54 A 32.54 32.54 0 0 1  748.48 0 L 715.94 32.54 A 32.54 32.54 0 0 0 748.48 0" fill="#303030"/><path d="M 715.94 65.08 A 32.54 32.54 0 0 1  748.48 32.54 L 715.94 65.08 A 32.54 32.54 0 0 0 748.48 32.54" fill="#393939"/><rect x="195.25714285714287" y="65.08571428571429" width="65.08571428571429" height="65.08571428571429" fill="#333333"/><path d="M 390.51 130.18 A 65.09 65.09 0 0 1  455.6 65.09 L 390.51 130.18 A 65.09 65.09 0 0 0 455.6 65.09" fill="#373737"/><path d="M 520.69 65.09 A 65.09 65.09 0 0 1  585.7800000000001 130.18 L 520.69 65.09 A 65.09 65.09 0 0 0 585.7800000000001 130.18" fill="#292929"/><path d="M 65.09 195.26 A 65.09 65.09 0 0 1  130.18 130.17 L 65.09 195.26 A 65.09 65.09 0 0 0 130.18 130.17" fill="#3c3c3c"/><path d="M 130.17 195.26 A 65.09 65.09 0 0 1  195.26 130.17 L 130.17 195.26 A 65.09 65.09 0 0 0 195.26 130.17" fill="#242424"/><path d="M 195.26 195.26 A 65.09 65.09 0 0 1  260.35 130.17 L 195.26 195.26 A 65.09 65.09 0 0 0 260.35 130.17" fill="#323232"/><rect x="390.51428571428573" y="130.17142857142858" width="65.08571428571429" height="65.08571428571429" fill="#333333"/><path d="M 390.51 162.71 A 32.54 32.54 0 0 1  423.05 195.25 L 390.51 162.71 A 32.54 32.54 0 0 0 423.05 195.25" fill="#2d2d2d"/><path d="M 650.86 130.17 A 65.09 65.09 0 0 1  715.95 195.26 L 650.86 130.17 A 65.09 65.09 0 0 0 715.95 195.26" fill="#232323"/><path d="M 715.94 195.26 A 65.09 65.09 0 0 1  781.0300000000001 130.17 L 715.94 195.26 A 65.09 65.09 0 0 0 781.0300000000001 130.17" fill="#242424"/><path d="M 455.6 195.26 A 65.09 65.09 0 0 1  520.69 260.35 L 455.6 195.26 A 65.09 65.09 0 0 0 520.69 260.35" fill="#282828"/><path d="M 650.86 195.26 A 65.09 65.09 0 0 1  715.95 260.35 L 650.86 195.26 A 65.09 65.09 0 0 0 715.95 260.35" fill="#575757"/><rect x="715.9428571428572" y="195.25714285714287" width="65.08571428571429" height="65.08571428571429" fill="#333333"/><path d="M 748.49 227.79999999999998 A 32.54 32.54 0 0 1  781.03 195.26 L 748.49 227.79999999999998 A 32.54 32.54 0 0 0 781.03 195.26" fill="#5b5b5b"/><path d="M 715.94 260.34000000000003 A 32.54 32.54 0 0 1  748.48 227.8 L 715.94 260.34000000000003 A 32.54 32.54 0 0 0 748.48 227.8" fill="#2d2d2d"/><path d="M 195.26 260.34 A 65.09 65.09 0 0 1  260.35 325.42999999999995 L 195.26 260.34 A 65.09 65.09 0 0 0 260.35 325.42999999999995" fill="#292929"/><rect x="390.51428571428573" y="260.34285714285716" width="65.08571428571429" height="65.08571428571429" fill="#333333"/><path d="M 390.51 260.34 A 32.54 32.54 0 0 1  423.05 292.88 L 390.51 260.34 A 32.54 32.54 0 0 0 423.05 292.88" fill="#2e2e2e"/><path d="M 423.06 292.88 A 32.54 32.54 0 0 1  455.6 260.34 L 423.06 292.88 A 32.54 32.54 0 0 0 455.6 260.34" fill="#2a2a2a"/><path d="M 390.51 292.89 A 32.54 32.54 0 0 1  423.05 325.43 L 390.51 292.89 A 32.54 32.54 0 0 0 423.05 325.43" fill="#656565"/><rect x="520.6857142857143" y="260.34285714285716" width="65.08571428571429" height="65.08571428571429" fill="#333333"/><rect x="650.8571428571429" y="260.34285714285716" width="65.08571428571429" height="65.08571428571429" fill="#333333"/><path d="M 683.4 325.43 A 32.54 32.54 0 0 1  715.9399999999999 292.89 L 683.4 325.43 A 32.54 32.54 0 0 0 715.9399999999999 292.89" fill="#2b2b2b"/><path d="M 130.17 325.43 A 65.09 65.09 0 0 1  195.26 390.52 L 130.17 325.43 A 65.09 65.09 0 0 0 195.26 390.52" fill="#282828"/><rect x="195.25714285714287" y="325.42857142857144" width="65.08571428571429" height="65.08571428571429" fill="#333333"/><path d="M 227.8 325.43 A 32.54 32.54 0 0 1  260.34000000000003 357.97 L 227.8 325.43 A 32.54 32.54 0 0 0 260.34000000000003 357.97" fill="#262626"/><path d="M 227.8 390.51000000000005 A 32.54 32.54 0 0 1  260.34000000000003 357.97 L 227.8 390.51000000000005 A 32.54 32.54 0 0 0 260.34000000000003 357.97" fill="#252525"/><rect x="0" y="390.51428571428573" width="65.08571428571429" height="65.08571428571429" fill="#333333"/><path d="M 32.54 455.6 A 32.54 32.54 0 0 1  65.08 423.06 L 32.54 455.6 A 32.54 32.54 0 0 0 65.08 423.06" fill="#202020"/><rect x="195.25714285714287" y="390.51428571428573" width="65.08571428571429" height="65.08571428571429" fill="#333333"/><path d="M 195.26 423.06 A 32.54 32.54 0 0 1  227.79999999999998 455.6 L 195.26 423.06 A 32.54 32.54 0 0 0 227.79999999999998 455.6" fill="#4c4c4c"/><path d="M 227.8 423.06 A 32.54 32.54 0 0 1  260.34000000000003 455.6 L 227.8 423.06 A 32.54 32.54 0 0 0 260.34000000000003 455.6" fill="#4b4b4b"/><rect x="260.34285714285716" y="390.51428571428573" width="65.08571428571429" height="65.08571428571429" fill="#333333"/><path d="M 260.34 423.05 A 32.54 32.54 0 0 1  292.88 390.51 L 260.34 423.05 A 32.54 32.54 0 0 0 292.88 390.51" fill="#272727"/><path d="M 292.89 423.06 A 32.54 32.54 0 0 1  325.43 455.6 L 292.89 423.06 A 32.54 32.54 0 0 0 325.43 455.6" fill="#313131"/><rect x="585.7714285714286" y="390.51428571428573" width="65.08571428571429" height="65.08571428571429" fill="#333333"/><path d="M 618.31 390.51 A 32.54 32.54 0 0 1  650.8499999999999 423.05 L 618.31 390.51 A 32.54 32.54 0 0 0 650.8499999999999 423.05" fill="#303030"/></g></svg>